<?xml version="1.0" encoding="us-ascii" standalone="no"?><svg xmlns="http://www.w3.org/2000/svg" xmlns:xlink="http://www.w3.org/1999/xlink" contentStyleType="text/css" height="233.2px" preserveAspectRatio="none" style="width:408px;height:233px;background:#FFFFFF;" version="1.1" viewBox="0 0 408 233" width="408.4px" zoomAndPan="magnify"><defs/><g><rect fill="#FFFFFF" height="12.6824" style="stroke:#181818;stroke-width:0.4000000000000001;" width="4" x="133.4" y="41.5096"/><rect fill="#FFFFFF" height="12.6824" style="stroke:#181818;stroke-width:0.4000000000000001;" width="4" x="133.4" y="66.8744"/><rect fill="#FFFFFF" height="12.6824" style="stroke:#181818;stroke-width:0.4000000000000001;" width="4" x="133.4" y="92.2392"/><rect fill="#FFFFFF" height="12.6824" style="stroke:#181818;stroke-width:0.4000000000000001;" width="4" x="222.6" y="104.9216"/><rect fill="#FFFFFF" height="38.0472" style="stroke:#181818;stroke-width:0.4000000000000001;" width="4" x="304.6" y="130.2864"/><rect fill="#FFFFFF" height="12.6824" style="stroke:#181818;stroke-width:0.4000000000000001;" width="4" x="304.6" y="181.016"/><line style="stroke:#181818;stroke-width:0.20000000000000004;stroke-dasharray:5.0,5.0;" x1="10.8" x2="10.8" y1="28.0272" y2="200.8985"/><line style="stroke:#181818;stroke-width:0.20000000000000004;stroke-dasharray:5.0,5.0;" x1="135.2" x2="135.2" y1="28.0272" y2="200.8985"/><line style="stroke:#181818;stroke-width:0.20000000000000004;stroke-dasharray:5.0,5.0;" x1="224.6" x2="224.6" y1="28.0272" y2="200.8985"/><line style="stroke:#181818;stroke-width:0.20000000000000004;stroke-dasharray:5.0,5.0;" x1="306.4" x2="306.4" y1="28.0272" y2="200.8985"/><line style="stroke:#181818;stroke-width:0.20000000000000004;stroke-dasharray:5.0,5.0;" x1="392.6" x2="392.6" y1="28.0272" y2="200.8985"/><rect fill="#E2E2F0" height="13.2272" rx="1" ry="1" style="stroke:#181818;stroke-width:0.20000000000000004;" width="18" x="2" y="14.4"/><text fill="#000000" font-family="sans-serif" font-size="5.6" lengthAdjust="spacing" textLength="12.4" x="4.8" y="23.1864">User</text><rect fill="#E2E2F0" height="13.2272" rx="1" ry="1" style="stroke:#181818;stroke-width:0.20000000000000004;" width="18" x="2" y="200.4985"/><text fill="#000000" font-family="sans-serif" font-size="5.6" lengthAdjust="spacing" textLength="12.4" x="4.8" y="209.2848">User</text><rect fill="#E2E2F0" height="13.2272" rx="1" ry="1" style="stroke:#181818;stroke-width:0.20000000000000004;" width="66" x="102.4" y="14.4"/><text fill="#000000" font-family="sans-serif" font-size="5.6" lengthAdjust="spacing" textLength="60.4" x="105.2" y="23.1864">EnergyProfile Contract</text><rect fill="#E2E2F0" height="13.2272" rx="1" ry="1" style="stroke:#181818;stroke-width:0.20000000000000004;" width="66" x="102.4" y="200.4985"/><text fill="#000000" font-family="sans-serif" font-size="5.6" lengthAdjust="spacing" textLength="60.4" x="105.2" y="209.2848">EnergyProfile Contract</text><rect fill="#E2E2F0" height="13.2272" rx="1" ry="1" style="stroke:#181818;stroke-width:0.20000000000000004;" width="60" x="194.6" y="14.4"/><text fill="#000000" font-family="sans-serif" font-size="5.6" lengthAdjust="spacing" textLength="54.4" x="197.4" y="23.1864">EnergyPool Contract</text><rect fill="#E2E2F0" height="13.2272" rx="1" ry="1" style="stroke:#181818;stroke-width:0.20000000000000004;" width="60" x="194.6" y="200.4985"/><text fill="#000000" font-family="sans-serif" font-size="5.6" lengthAdjust="spacing" textLength="54.4" x="197.4" y="209.2848">EnergyPool Contract</text><rect fill="#E2E2F0" height="13.2272" rx="1" ry="1" style="stroke:#181818;stroke-width:0.20000000000000004;" width="67.6" x="272.8" y="14.4"/><text fill="#000000" font-family="sans-serif" font-size="5.6" lengthAdjust="spacing" textLength="62" x="275.6" y="23.1864">EnergyMarket Contract</text><rect fill="#E2E2F0" height="13.2272" rx="1" ry="1" style="stroke:#181818;stroke-width:0.20000000000000004;" width="67.6" x="272.8" y="200.4985"/><text fill="#000000" font-family="sans-serif" font-size="5.6" lengthAdjust="spacing" textLength="62" x="275.6" y="209.2848">EnergyMarket Contract</text><text fill="#000000" font-family="sans-serif" font-size="5.6" lengthAdjust="spacing" textLength="28.8" x="377" y="26.3864">Blockchain</text><path d="M385.4,6 C385.4,2 392.6,2 392.6,2 C392.6,2 399.8,2 399.8,6 L399.8,16.4 C399.8,20.4 392.6,20.4 392.6,20.4 C392.6,20.4 385.4,20.4 385.4,16.4 L385.4,6 " fill="#E2E2F0" style="stroke:#181818;stroke-width:0.6000000000000001;"/><path d="M385.4,6 C385.4,10 392.6,10 392.6,10 C392.6,10 399.8,10 399.8,6 " fill="none" style="stroke:#181818;stroke-width:0.6000000000000001;"/><text fill="#000000" font-family="sans-serif" font-size="5.6" lengthAdjust="spacing" textLength="28.8" x="377" y="206.4848">Blockchain</text><path d="M385.4,212.1256 C385.4,208.1256 392.6,208.1256 392.6,208.1256 C392.6,208.1256 399.8,208.1256 399.8,212.1256 L399.8,222.5256 C399.8,226.5256 392.6,226.5256 392.6,226.5256 C392.6,226.5256 385.4,226.5256 385.4,222.5256 L385.4,212.1256 " fill="#E2E2F0" style="stroke:#181818;stroke-width:0.6000000000000001;"/><path d="M385.4,212.1256 C385.4,216.1256 392.6,216.1256 392.6,216.1256 C392.6,216.1256 399.8,216.1256 399.8,212.1256 " fill="none" style="stroke:#181818;stroke-width:0.6000000000000001;"/><rect fill="#FFFFFF" height="12.6824" style="stroke:#181818;stroke-width:0.4000000000000001;" width="4" x="133.4" y="41.5096"/><rect fill="#FFFFFF" height="12.6824" style="stroke:#181818;stroke-width:0.4000000000000001;" width="4" x="133.4" y="66.8744"/><rect fill="#FFFFFF" height="12.6824" style="stroke:#181818;stroke-width:0.4000000000000001;" width="4" x="133.4" y="92.2392"/><rect fill="#FFFFFF" height="12.6824" style="stroke:#181818;stroke-width:0.4000000000000001;" width="4" x="222.6" y="104.9216"/><rect fill="#FFFFFF" height="38.0472" style="stroke:#181818;stroke-width:0.4000000000000001;" width="4" x="304.6" y="130.2864"/><rect fill="#FFFFFF" height="12.6824" style="stroke:#181818;stroke-width:0.4000000000000001;" width="4" x="304.6" y="181.016"/><polygon fill="#181818" points="128.6,39.9096,132.6,41.5096,128.6,43.1096,130.2,41.5096" style="stroke:#181818;stroke-width:0.4000000000000001;"/><line style="stroke:#181818;stroke-width:0.4000000000000001;" x1="11" x2="131" y1="41.5096" y2="41.5096"/><text fill="#000000" font-family="sans-serif" font-size="5.2" lengthAdjust="spacing" textLength="59.6" x="13.8" y="39.186">Create EnergyProfile NFT</text><polygon fill="#181818" points="387.8,52.592,391.8,54.192,387.8,55.792,389.4,54.192" style="stroke:#181818;stroke-width:0.4000000000000001;"/><line style="stroke:#181818;stroke-width:0.4000000000000001;" x1="135.4" x2="390.2" y1="54.192" y2="54.192"/><text fill="#000000" font-family="sans-serif" font-size="5.2" lengthAdjust="spacing" textLength="59.6" x="138.2" y="51.8684">Store User Energy Profile</text><polygon fill="#181818" points="128.6,65.2744,132.6,66.8744,128.6,68.4744,130.2,66.8744" style="stroke:#181818;stroke-width:0.4000000000000001;"/><line style="stroke:#181818;stroke-width:0.4000000000000001;" x1="11" x2="131" y1="66.8744" y2="66.8744"/><text fill="#000000" font-family="sans-serif" font-size="5.2" lengthAdjust="spacing" textLength="114.8" x="13.8" y="64.5508">Make Commitments (Production/Consumption)</text><polygon fill="#181818" points="387.8,77.9568,391.8,79.5568,387.8,81.1568,389.4,79.5568" style="stroke:#181818;stroke-width:0.4000000000000001;"/><line style="stroke:#181818;stroke-width:0.4000000000000001;" x1="135.4" x2="390.2" y1="79.5568" y2="79.5568"/><text fill="#000000" font-family="sans-serif" font-size="5.2" lengthAdjust="spacing" textLength="75.6" x="138.2" y="77.2332">Update Commitments in Profile</text><polygon fill="#181818" points="128.6,90.6392,132.6,92.2392,128.6,93.8392,130.2,92.2392" style="stroke:#181818;stroke-width:0.4000000000000001;"/><line style="stroke:#181818;stroke-width:0.4000000000000001;" x1="11" x2="131" y1="92.2392" y2="92.2392"/><text fill="#000000" font-family="sans-serif" font-size="5.2" lengthAdjust="spacing" textLength="62.4" x="13.8" y="89.9156">Deposit EnergyProfile NFT</text><polygon fill="#181818" points="217.8,103.3216,221.8,104.9216,217.8,106.5216,219.4,104.9216" style="stroke:#181818;stroke-width:0.4000000000000001;"/><line style="stroke:#181818;stroke-width:0.4000000000000001;" x1="135.4" x2="220.2" y1="104.9216" y2="104.9216"/><text fill="#000000" font-family="sans-serif" font-size="5.2" lengthAdjust="spacing" textLength="77.6" x="138.2" y="102.598">Transfer NFT with Commitments</text><polygon fill="#181818" points="387.8,116.004,391.8,117.604,387.8,119.204,389.4,117.604" style="stroke:#181818;stroke-width:0.4000000000000001;"/><line style="stroke:#181818;stroke-width:0.4000000000000001;" x1="224.6" x2="390.2" y1="117.604" y2="117.604"/><text fill="#000000" font-family="sans-serif" font-size="5.2" lengthAdjust="spacing" textLength="48" x="227.4" y="115.2804">Update Energy Pool</text><polygon fill="#181818" points="299.8,128.6864,303.8,130.2864,299.8,131.8864,301.4,130.2864" style="stroke:#181818;stroke-width:0.4000000000000001;"/><line style="stroke:#181818;stroke-width:0.4000000000000001;" x1="224.6" x2="302.2" y1="130.2864" y2="130.2864"/><text fill="#000000" font-family="sans-serif" font-size="5.2" lengthAdjust="spacing" textLength="72.4" x="227.4" y="127.9628">Trigger on New Commitments</text><polygon fill="#181818" points="387.8,141.3688,391.8,142.9688,387.8,144.5688,389.4,142.9688" style="stroke:#181818;stroke-width:0.4000000000000001;"/><line style="stroke:#181818;stroke-width:0.4000000000000001;" x1="308.6" x2="390.2" y1="142.9688" y2="142.9688"/><text fill="#000000" font-family="sans-serif" font-size="5.2" lengthAdjust="spacing" textLength="48.8" x="311.4" y="140.6452">Add to MarketBuffer</text><polygon fill="#181818" points="387.8,154.0512,391.8,155.6512,387.8,157.2512,389.4,155.6512" style="stroke:#181818;stroke-width:0.4000000000000001;"/><line style="stroke:#181818;stroke-width:0.4000000000000001;" x1="308.6" x2="390.2" y1="155.6512" y2="155.6512"/><text fill="#000000" font-family="sans-serif" font-size="5.2" lengthAdjust="spacing" textLength="74.4" x="311.4" y="153.3276">Remove Expired Commitments</text><polygon fill="#181818" points="387.8,166.7336,391.8,168.3336,387.8,169.9336,389.4,168.3336" style="stroke:#181818;stroke-width:0.4000000000000001;"/><line style="stroke:#181818;stroke-width:0.4000000000000001;" x1="306.6" x2="390.2" y1="168.3336" y2="168.3336"/><text fill="#000000" font-family="sans-serif" font-size="5.2" lengthAdjust="spacing" textLength="74" x="309.4" y="166.01">Process &amp; Settle Commitments</text><polygon fill="#181818" points="299.8,179.416,303.8,181.016,299.8,182.616,301.4,181.016" style="stroke:#181818;stroke-width:0.4000000000000001;"/><line style="stroke:#181818;stroke-width:0.4000000000000001;" x1="11" x2="302.2" y1="181.016" y2="181.016"/><text fill="#000000" font-family="sans-serif" font-size="5.2" lengthAdjust="spacing" textLength="58.4" x="13.8" y="178.6924">Withdraw NFT/Collateral</text><polygon fill="#181818" points="15.4,192.0985,11.4,193.6985,15.4,195.2985,13.8,193.6985" style="stroke:#181818;stroke-width:0.4000000000000001;"/><line style="stroke:#181818;stroke-width:0.4000000000000001;" x1="13" x2="306.2" y1="193.6985" y2="193.6985"/><text fill="#000000" font-family="sans-serif" font-size="5.2" lengthAdjust="spacing" textLength="51.6" x="17.8" y="191.3749">Return NFT/Collateral</text><!--SRC=[ZL71JiCm3BttAwmT41mGznsGQ84JdIQsYhDfl2rQcaI9ky7Vuup1qcgJTaZLnE_vFJzx3AnRxT4oJ9f8OG8OeIby_lvYAQo_vy6jj26edEM0BH-GB_FgBDOvCmQ-dKNM6BR48snT5GePFp4IJ4hZscsxGMqFnR8e6hX_JCfJg08X4mmDpbwNXRJIkqD93Cf9Z78A2tQ18CrvvC2HL2WQK3AD6hTfwAxJt97b2BV2KRsWdNqGtx7lVFg_koJQU9KUynRQNY7yJDv5pLTEbmAUmZAWZIiPJs2mrxp9PSTQsKMMKwJlqF9VHhBD8JU7oxQIhbwlHTPPcD5-87gYoLhb72MUb09syBl_ib-9wQpwJftR2UNBwq1gqEy4aaXQYX5kO47CXYxEMl_dchn-I2mgu3vb90iqHZ01pLcZJRB2VR1ZyAZz3m00]--></g></svg>