<?xml version="1.0" encoding="us-ascii" standalone="no"?><svg xmlns="http://www.w3.org/2000/svg" xmlns:xlink="http://www.w3.org/1999/xlink" contentStyleType="text/css" height="590.8px" preserveAspectRatio="none" style="width:306px;height:590px;background:#FFFFFF;" version="1.1" viewBox="0 0 306 590" width="306.8px" zoomAndPan="magnify"><defs/><g><rect fill="none" height="74.5635" style="stroke:#000000;stroke-width:0.6000000000000001;" width="202.6" x="4" y="42.4129"/><rect fill="none" height="166.0647" style="stroke:#000000;stroke-width:0.6000000000000001;" width="269.2" x="4" y="122.5765"/><rect fill="none" height="80.7012" style="stroke:#000000;stroke-width:0.6000000000000001;" width="300.4" x="4" y="308.7788"/><rect fill="none" height="86.3012" style="stroke:#000000;stroke-width:0.6000000000000001;" width="246.4" x="4" y="409.6176"/><rect fill="none" height="62.0259" style="stroke:#000000;stroke-width:0.6000000000000001;" width="259.6" x="4" y="501.5188"/><line style="stroke:#181818;stroke-width:0.20000000000000004;stroke-dasharray:5.0,5.0;" x1="22.8" x2="22.8" y1="21.0753" y2="570.3446"/><line style="stroke:#181818;stroke-width:0.20000000000000004;stroke-dasharray:5.0,5.0;" x1="54.8" x2="54.8" y1="21.0753" y2="570.3446"/><line style="stroke:#181818;stroke-width:0.20000000000000004;stroke-dasharray:5.0,5.0;" x1="119.4" x2="119.4" y1="21.0753" y2="570.3446"/><line style="stroke:#181818;stroke-width:0.20000000000000004;stroke-dasharray:5.0,5.0;" x1="188.2" x2="188.2" y1="21.0753" y2="570.3446"/><line style="stroke:#181818;stroke-width:0.20000000000000004;stroke-dasharray:5.0,5.0;" x1="261.6" x2="261.6" y1="21.0753" y2="570.3446"/><line style="stroke:#181818;stroke-width:0.20000000000000004;stroke-dasharray:5.0,5.0;" x1="286.8" x2="286.8" y1="21.0753" y2="570.3446"/><rect fill="#E2E2F0" height="18.6753" rx="1" ry="1" style="stroke:#181818;stroke-width:0.20000000000000004;" width="30" x="8" y="2"/><text fill="#000000" font-family="sans-serif" font-size="4.8" lengthAdjust="spacing" textLength="23.2" x="10.8" y="9.9312">Consumer</text><text fill="#000000" font-family="sans-serif" font-size="4.8" lengthAdjust="spacing" textLength="6.8" x="20.2" y="16.4689">AD</text><rect fill="#E2E2F0" height="18.6753" rx="1" ry="1" style="stroke:#181818;stroke-width:0.20000000000000004;" width="30" x="8" y="569.9446"/><text fill="#000000" font-family="sans-serif" font-size="4.8" lengthAdjust="spacing" textLength="23.2" x="10.8" y="577.8759">Consumer</text><text fill="#000000" font-family="sans-serif" font-size="4.8" lengthAdjust="spacing" textLength="6.8" x="20.2" y="584.4135">AD</text><rect fill="#E2E2F0" height="18.6753" rx="1" ry="1" style="stroke:#181818;stroke-width:0.20000000000000004;" width="25.6" x="42" y="2"/><text fill="#000000" font-family="sans-serif" font-size="4.8" lengthAdjust="spacing" textLength="18.8" x="44.8" y="9.9312">Provider</text><text fill="#000000" font-family="sans-serif" font-size="4.8" lengthAdjust="spacing" textLength="6.8" x="52" y="16.4689">AD</text><rect fill="#E2E2F0" height="18.6753" rx="1" ry="1" style="stroke:#181818;stroke-width:0.20000000000000004;" width="25.6" x="42" y="569.9446"/><text fill="#000000" font-family="sans-serif" font-size="4.8" lengthAdjust="spacing" textLength="18.8" x="44.8" y="577.8759">Provider</text><text fill="#000000" font-family="sans-serif" font-size="4.8" lengthAdjust="spacing" textLength="6.8" x="52" y="584.4135">AD</text><rect fill="#E2E2F0" height="12.1376" rx="1" ry="1" style="stroke:#181818;stroke-width:0.20000000000000004;" width="18" x="110.6" y="8.5376"/><text fill="#000000" font-family="sans-serif" font-size="4.8" lengthAdjust="spacing" textLength="12.4" x="113.4" y="16.4689">DApp</text><rect fill="#E2E2F0" height="12.1376" rx="1" ry="1" style="stroke:#181818;stroke-width:0.20000000000000004;" width="18" x="110.6" y="569.9446"/><text fill="#000000" font-family="sans-serif" font-size="4.8" lengthAdjust="spacing" textLength="12.4" x="113.4" y="577.8759">DApp</text><rect fill="#E2E2F0" height="18.6753" rx="1" ry="1" style="stroke:#181818;stroke-width:0.20000000000000004;" width="28.4" x="174.2" y="2"/><text fill="#000000" font-family="sans-serif" font-size="4.8" lengthAdjust="spacing" textLength="13.6" x="181" y="9.9312">Smart</text><text fill="#000000" font-family="sans-serif" font-size="4.8" lengthAdjust="spacing" textLength="21.6" x="178.2" y="16.4689">Contracts</text><rect fill="#E2E2F0" height="18.6753" rx="1" ry="1" style="stroke:#181818;stroke-width:0.20000000000000004;" width="28.4" x="174.2" y="569.9446"/><text fill="#000000" font-family="sans-serif" font-size="4.8" lengthAdjust="spacing" textLength="13.6" x="181" y="577.8759">Smart</text><text fill="#000000" font-family="sans-serif" font-size="4.8" lengthAdjust="spacing" textLength="21.6" x="178.2" y="584.4135">Contracts</text><rect fill="#E2E2F0" height="12.1376" rx="1" ry="1" style="stroke:#181818;stroke-width:0.20000000000000004;" width="15.2" x="254" y="8.5376"/><text fill="#000000" font-family="sans-serif" font-size="4.8" lengthAdjust="spacing" textLength="9.6" x="256.8" y="16.4689">IPFS</text><rect fill="#E2E2F0" height="12.1376" rx="1" ry="1" style="stroke:#181818;stroke-width:0.20000000000000004;" width="15.2" x="254" y="569.9446"/><text fill="#000000" font-family="sans-serif" font-size="4.8" lengthAdjust="spacing" textLength="9.6" x="256.8" y="577.8759">IPFS</text><rect fill="#E2E2F0" height="18.6753" rx="1" ry="1" style="stroke:#181818;stroke-width:0.20000000000000004;" width="27.2" x="273.2" y="2"/><text fill="#000000" font-family="sans-serif" font-size="4.8" lengthAdjust="spacing" textLength="20.4" x="276" y="9.9312">Chainlink</text><text fill="#000000" font-family="sans-serif" font-size="4.8" lengthAdjust="spacing" textLength="14.8" x="280" y="16.4689">Oracle</text><rect fill="#E2E2F0" height="18.6753" rx="1" ry="1" style="stroke:#181818;stroke-width:0.20000000000000004;" width="27.2" x="273.2" y="569.9446"/><text fill="#000000" font-family="sans-serif" font-size="4.8" lengthAdjust="spacing" textLength="20.4" x="276" y="577.8759">Chainlink</text><text fill="#000000" font-family="sans-serif" font-size="4.8" lengthAdjust="spacing" textLength="14.8" x="280" y="584.4135">Oracle</text><path d="M9.6,27.0753 L9.6,37.4753 L300,37.4753 L300,31.0753 L296,27.0753 L9.6,27.0753 " fill="#FEFFDD" style="stroke:#181818;stroke-width:0.20000000000000004;"/><path d="M296,27.0753 L296,31.0753 L300,31.0753 L296,27.0753 " fill="#FEFFDD" style="stroke:#181818;stroke-width:0.20000000000000004;"/><text fill="#000000" font-family="sans-serif" font-size="4.8" lengthAdjust="spacing" textLength="75.6" x="115.2" y="34.2065">Registration and Service Selection</text><path d="M4,42.4129 L51.6,42.4129 L51.6,45.7506 L47.6,49.7506 L4,49.7506 L4,42.4129 " fill="#EEEEEE" style="stroke:#000000;stroke-width:0.6000000000000001;"/><rect fill="none" height="74.5635" style="stroke:#000000;stroke-width:0.6000000000000001;" width="202.6" x="4" y="42.4129"/><text fill="#000000" font-family="sans-serif" font-size="4.8" font-weight="bold" lengthAdjust="spacing" textLength="29.6" x="10" y="47.9442">Registration</text><polygon fill="#181818" points="114.8,57.0882,118.8,58.6882,114.8,60.2882,116.4,58.6882" style="stroke:#181818;stroke-width:0.4000000000000001;"/><line style="stroke:#181818;stroke-width:0.4000000000000001;" x1="23" x2="117.2" y1="58.6882" y2="58.6882"/><text fill="#000000" font-family="sans-serif" font-size="4.8" lengthAdjust="spacing" textLength="50.4" x="25.8" y="56.4818">Access for registration</text><polygon fill="#181818" points="114.8,69.2259,118.8,70.8259,114.8,72.4259,116.4,70.8259" style="stroke:#181818;stroke-width:0.4000000000000001;"/><line style="stroke:#181818;stroke-width:0.4000000000000001;" x1="54.8" x2="117.2" y1="70.8259" y2="70.8259"/><text fill="#000000" font-family="sans-serif" font-size="4.8" lengthAdjust="spacing" textLength="50.4" x="57.6" y="68.6195">Access for registration</text><polygon fill="#181818" points="183.6,87.9012,187.6,89.5012,183.6,91.1012,185.2,89.5012" style="stroke:#181818;stroke-width:0.4000000000000001;"/><line style="stroke:#181818;stroke-width:0.4000000000000001;" x1="119.6" x2="186" y1="89.5012" y2="89.5012"/><text fill="#000000" font-family="sans-serif" font-size="4.8" lengthAdjust="spacing" textLength="50" x="122.4" y="80.7571">Call registrationAD.sol</text><text fill="#000000" font-family="sans-serif" font-size="4.8" lengthAdjust="spacing" textLength="34.4" x="123.6" y="87.2948">for Registration</text><polygon fill="#181818" points="124,100.0388,120,101.6388,124,103.2388,122.4,101.6388" style="stroke:#181818;stroke-width:0.4000000000000001;"/><line style="stroke:#181818;stroke-width:0.4000000000000001;" x1="121.6" x2="188" y1="101.6388" y2="101.6388"/><text fill="#000000" font-family="sans-serif" font-size="4.8" lengthAdjust="spacing" textLength="50.4" x="126.4" y="99.4324">Emit RegistrationEvent</text><polygon fill="#181818" points="27.4,112.1765,23.4,113.7765,27.4,115.3765,25.8,113.7765" style="stroke:#181818;stroke-width:0.4000000000000001;"/><line style="stroke:#181818;stroke-width:0.4000000000000001;" x1="25" x2="119.2" y1="113.7765" y2="113.7765"/><text fill="#000000" font-family="sans-serif" font-size="4.8" lengthAdjust="spacing" textLength="46" x="29.8" y="111.57">Confirm Registration</text><path d="M4,122.5765 L62.4,122.5765 L62.4,125.9141 L58.4,129.9141 L4,129.9141 L4,122.5765 " fill="#EEEEEE" style="stroke:#000000;stroke-width:0.6000000000000001;"/><rect fill="none" height="166.0647" style="stroke:#000000;stroke-width:0.6000000000000001;" width="269.2" x="4" y="122.5765"/><text fill="#000000" font-family="sans-serif" font-size="4.8" font-weight="bold" lengthAdjust="spacing" textLength="40.4" x="10" y="128.1077">Service Selection</text><polygon fill="#181818" points="114.8,137.2517,118.8,138.8517,114.8,140.4517,116.4,138.8517" style="stroke:#181818;stroke-width:0.4000000000000001;"/><line style="stroke:#181818;stroke-width:0.4000000000000001;" x1="54.8" x2="117.2" y1="138.8517" y2="138.8517"/><text fill="#000000" font-family="sans-serif" font-size="4.8" lengthAdjust="spacing" textLength="54.8" x="57.6" y="136.6453">Initiate Service Provision</text><polygon fill="#181818" points="183.6,155.927,187.6,157.527,183.6,159.127,185.2,157.527" style="stroke:#181818;stroke-width:0.4000000000000001;"/><line style="stroke:#181818;stroke-width:0.4000000000000001;" x1="119.6" x2="186" y1="157.527" y2="157.527"/><text fill="#000000" font-family="sans-serif" font-size="4.8" lengthAdjust="spacing" textLength="50" x="122.4" y="148.783">Call registrationAD.sol</text><text fill="#000000" font-family="sans-serif" font-size="4.8" lengthAdjust="spacing" textLength="34.4" x="123.6" y="155.3206">for Registration</text><polygon fill="#181818" points="256.8,168.0647,260.8,169.6647,256.8,171.2647,258.4,169.6647" style="stroke:#181818;stroke-width:0.4000000000000001;"/><line style="stroke:#181818;stroke-width:0.4000000000000001;" x1="188.4" x2="259.2" y1="169.6647" y2="169.6647"/><text fill="#000000" font-family="sans-serif" font-size="4.8" lengthAdjust="spacing" textLength="46.4" x="191.2" y="167.4583">Store Service Details</text><polygon fill="#181818" points="192.8,186.74,188.8,188.34,192.8,189.94,191.2,188.34" style="stroke:#181818;stroke-width:0.4000000000000001;"/><line style="stroke:#181818;stroke-width:0.4000000000000001;" x1="190.4" x2="261.2" y1="188.34" y2="188.34"/><text fill="#000000" font-family="sans-serif" font-size="4.8" lengthAdjust="spacing" textLength="38.4" x="195.2" y="179.5959">Return IPFS Hash</text><text fill="#000000" font-family="sans-serif" font-size="4.8" lengthAdjust="spacing" textLength="26.4" x="196.4" y="186.1336">&amp; Signature</text><polygon fill="#181818" points="124,198.8776,120,200.4776,124,202.0776,122.4,200.4776" style="stroke:#181818;stroke-width:0.4000000000000001;"/><line style="stroke:#181818;stroke-width:0.4000000000000001;" x1="121.6" x2="188" y1="200.4776" y2="200.4776"/><text fill="#000000" font-family="sans-serif" font-size="4.8" lengthAdjust="spacing" textLength="54.4" x="126.4" y="198.2712">Emit ServiceAddedEvent</text><polygon fill="#181818" points="59.2,211.0153,55.2,212.6153,59.2,214.2153,57.6,212.6153" style="stroke:#181818;stroke-width:0.4000000000000001;"/><line style="stroke:#181818;stroke-width:0.4000000000000001;" x1="56.8" x2="119.2" y1="212.6153" y2="212.6153"/><text fill="#000000" font-family="sans-serif" font-size="4.8" lengthAdjust="spacing" textLength="55.2" x="61.6" y="210.4089">Confirm Service Addition</text><polygon fill="#181818" points="114.8,223.1529,118.8,224.7529,114.8,226.3529,116.4,224.7529" style="stroke:#181818;stroke-width:0.4000000000000001;"/><line style="stroke:#181818;stroke-width:0.4000000000000001;" x1="23" x2="117.2" y1="224.7529" y2="224.7529"/><text fill="#000000" font-family="sans-serif" font-size="4.8" lengthAdjust="spacing" textLength="36.8" x="25.8" y="222.5465">Browse Services</text><polygon fill="#181818" points="183.6,235.2906,187.6,236.8906,183.6,238.4906,185.2,236.8906" style="stroke:#181818;stroke-width:0.4000000000000001;"/><line style="stroke:#181818;stroke-width:0.4000000000000001;" x1="119.6" x2="186" y1="236.8906" y2="236.8906"/><text fill="#000000" font-family="sans-serif" font-size="4.8" lengthAdjust="spacing" textLength="53.6" x="122.4" y="234.6842">Call serviceSelection.sol</text><polygon fill="#181818" points="27.4,247.4282,23.4,249.0282,27.4,250.6282,25.8,249.0282" style="stroke:#181818;stroke-width:0.4000000000000001;"/><line style="stroke:#181818;stroke-width:0.4000000000000001;" x1="25" x2="188" y1="249.0282" y2="249.0282"/><text fill="#000000" font-family="sans-serif" font-size="4.8" lengthAdjust="spacing" textLength="56.4" x="29.8" y="246.8218">Return Available Services</text><polygon fill="#181818" points="183.6,259.5659,187.6,261.1659,183.6,262.7659,185.2,261.1659" style="stroke:#181818;stroke-width:0.4000000000000001;"/><line style="stroke:#181818;stroke-width:0.4000000000000001;" x1="23" x2="186" y1="261.1659" y2="261.1659"/><text fill="#000000" font-family="sans-serif" font-size="4.8" lengthAdjust="spacing" textLength="59.2" x="25.8" y="258.9594">Call selectService Function</text><polygon fill="#181818" points="124,271.7035,120,273.3035,124,274.9035,122.4,273.3035" style="stroke:#181818;stroke-width:0.4000000000000001;"/><line style="stroke:#181818;stroke-width:0.4000000000000001;" x1="121.6" x2="188" y1="273.3035" y2="273.3035"/><text fill="#000000" font-family="sans-serif" font-size="4.8" lengthAdjust="spacing" textLength="59.2" x="126.4" y="271.0971">Emit ServiceSelectedEvent</text><polygon fill="#181818" points="27.4,283.8411,23.4,285.4411,27.4,287.0411,25.8,285.4411" style="stroke:#181818;stroke-width:0.4000000000000001;"/><line style="stroke:#181818;stroke-width:0.4000000000000001;" x1="25" x2="119.2" y1="285.4411" y2="285.4411"/><text fill="#000000" font-family="sans-serif" font-size="4.8" lengthAdjust="spacing" textLength="57.2" x="29.8" y="283.2347">Confirm Service Selection</text><path d="M9.6,293.4411 L9.6,303.8411 L300,303.8411 L300,297.4411 L296,293.4411 L9.6,293.4411 " fill="#FEFFDD" style="stroke:#181818;stroke-width:0.20000000000000004;"/><path d="M296,293.4411 L296,297.4411 L300,297.4411 L296,293.4411 " fill="#FEFFDD" style="stroke:#181818;stroke-width:0.20000000000000004;"/><text fill="#000000" font-family="sans-serif" font-size="4.8" lengthAdjust="spacing" textLength="89.6" x="108.2" y="300.5724">SLA Monitoring and Penalty Assessment</text><path d="M4,308.7788 L60,308.7788 L60,312.1164 L56,316.1164 L4,316.1164 L4,308.7788 " fill="#EEEEEE" style="stroke:#000000;stroke-width:0.6000000000000001;"/><rect fill="none" height="80.7012" style="stroke:#000000;stroke-width:0.6000000000000001;" width="300.4" x="4" y="308.7788"/><text fill="#000000" font-family="sans-serif" font-size="4.8" font-weight="bold" lengthAdjust="spacing" textLength="38" x="10" y="314.31">SLA assessment</text><polygon fill="#181818" points="282,323.4541,286,325.0541,282,326.6541,283.6,325.0541" style="stroke:#181818;stroke-width:0.4000000000000001;"/><line style="stroke:#181818;stroke-width:0.4000000000000001;" x1="23" x2="284.4" y1="325.0541" y2="325.0541"/><text fill="#000000" font-family="sans-serif" font-size="4.8" lengthAdjust="spacing" textLength="45.6" x="25.8" y="322.8477">Query Oracle for KPI</text><polygon fill="#181818" points="192.8,342.1294,188.8,343.7294,192.8,345.3294,191.2,343.7294" style="stroke:#181818;stroke-width:0.4000000000000001;"/><line style="stroke:#181818;stroke-width:0.4000000000000001;" x1="190.4" x2="286.4" y1="343.7294" y2="343.7294"/><text fill="#000000" font-family="sans-serif" font-size="4.8" lengthAdjust="spacing" textLength="36.8" x="195.2" y="334.9853">Log KPI on-chain</text><text fill="#000000" font-family="sans-serif" font-size="4.8" lengthAdjust="spacing" textLength="43.2" x="196.4" y="341.523">[monitorOracle.sol]</text><line style="stroke:#181818;stroke-width:0.4000000000000001;" x1="188.4" x2="205.2" y1="362.4047" y2="362.4047"/><line style="stroke:#181818;stroke-width:0.4000000000000001;" x1="205.2" x2="205.2" y1="362.4047" y2="367.6047"/><line style="stroke:#181818;stroke-width:0.4000000000000001;" x1="188.8" x2="205.2" y1="367.6047" y2="367.6047"/><polygon fill="#181818" points="192.8,366.0047,188.8,367.6047,192.8,369.2047,191.2,367.6047" style="stroke:#181818;stroke-width:0.4000000000000001;"/><text fill="#000000" font-family="sans-serif" font-size="4.8" lengthAdjust="spacing" textLength="58" x="191.2" y="353.6606">Evaluate Breach &amp; Record</text><text fill="#000000" font-family="sans-serif" font-size="4.8" lengthAdjust="spacing" textLength="41.6" x="192.4" y="360.1983">[recordBreach.sol]</text><polygon fill="#181818" points="192.8,384.68,188.8,386.28,192.8,387.88,191.2,386.28" style="stroke:#181818;stroke-width:0.4000000000000001;"/><line style="stroke:#181818;stroke-width:0.4000000000000001;" x1="190.4" x2="286.4" y1="386.28" y2="386.28"/><text fill="#000000" font-family="sans-serif" font-size="4.8" lengthAdjust="spacing" textLength="52" x="195.2" y="377.5359">Record SLA compliance</text><text fill="#000000" font-family="sans-serif" font-size="4.8" lengthAdjust="spacing" textLength="59.6" x="196.4" y="384.0735">metrics [recordBreach.sol]</text><path d="M9.6,394.28 L9.6,404.68 L300,404.68 L300,398.28 L296,394.28 L9.6,394.28 " fill="#FEFFDD" style="stroke:#181818;stroke-width:0.20000000000000004;"/><path d="M296,394.28 L296,398.28 L300,398.28 L296,394.28 " fill="#FEFFDD" style="stroke:#181818;stroke-width:0.20000000000000004;"/><text fill="#000000" font-family="sans-serif" font-size="4.8" lengthAdjust="spacing" textLength="57.2" x="124.4" y="401.4112">Billing and Total Penalties</text><path d="M4,409.6176 L81.2,409.6176 L81.2,412.9552 L77.2,416.9552 L4,416.9552 L4,409.6176 " fill="#EEEEEE" style="stroke:#000000;stroke-width:0.6000000000000001;"/><rect fill="none" height="86.3012" style="stroke:#000000;stroke-width:0.6000000000000001;" width="246.4" x="4" y="409.6176"/><text fill="#000000" font-family="sans-serif" font-size="4.8" font-weight="bold" lengthAdjust="spacing" textLength="59.2" x="10" y="415.1488">Calculate Toatl Penalties</text><polygon fill="#181818" points="183.6,424.2929,187.6,425.8929,183.6,427.4929,185.2,425.8929" style="stroke:#181818;stroke-width:0.4000000000000001;"/><line style="stroke:#181818;stroke-width:0.4000000000000001;" x1="23" x2="186" y1="425.8929" y2="425.8929"/><text fill="#000000" font-family="sans-serif" font-size="4.8" lengthAdjust="spacing" textLength="56" x="25.8" y="423.6865">Initiate Billing [Billing.sol]</text><line style="stroke:#181818;stroke-width:0.4000000000000001;" x1="188.4" x2="205.2" y1="444.5682" y2="444.5682"/><line style="stroke:#181818;stroke-width:0.4000000000000001;" x1="205.2" x2="205.2" y1="444.5682" y2="449.7682"/><line style="stroke:#181818;stroke-width:0.4000000000000001;" x1="188.8" x2="205.2" y1="449.7682" y2="449.7682"/><polygon fill="#181818" points="192.8,448.1682,188.8,449.7682,192.8,451.3682,191.2,449.7682" style="stroke:#181818;stroke-width:0.4000000000000001;"/><text fill="#000000" font-family="sans-serif" font-size="4.8" lengthAdjust="spacing" textLength="53.2" x="191.2" y="435.8241">Query recordBreach.sol</text><text fill="#000000" font-family="sans-serif" font-size="4.8" lengthAdjust="spacing" textLength="28" x="192.4" y="442.3618">for Penalties</text><polygon fill="#181818" points="27.4,460.3058,23.4,461.9058,27.4,463.5058,25.8,461.9058" style="stroke:#181818;stroke-width:0.4000000000000001;"/><line style="stroke:#181818;stroke-width:0.4000000000000001;" x1="25" x2="188" y1="461.9058" y2="461.9058"/><text fill="#000000" font-family="sans-serif" font-size="4.8" lengthAdjust="spacing" textLength="74.4" x="29.8" y="459.6994">Return Total Penalties [Billing.sol]</text><polygon fill="#181818" points="183.6,472.4435,187.6,474.0435,183.6,475.6435,185.2,474.0435" style="stroke:#181818;stroke-width:0.4000000000000001;"/><line style="stroke:#181818;stroke-width:0.4000000000000001;" x1="23" x2="186" y1="474.0435" y2="474.0435"/><text fill="#000000" font-family="sans-serif" font-size="4.8" lengthAdjust="spacing" textLength="82.8" x="25.8" y="471.8371">Call calculateTotalPenalty [Billing.sol]</text><polygon fill="#181818" points="27.4,491.1188,23.4,492.7188,27.4,494.3188,25.8,492.7188" style="stroke:#181818;stroke-width:0.4000000000000001;"/><line style="stroke:#181818;stroke-width:0.4000000000000001;" x1="25" x2="188" y1="492.7188" y2="492.7188"/><text fill="#000000" font-family="sans-serif" font-size="4.8" lengthAdjust="spacing" textLength="29.6" x="29.8" y="483.9747">Confirm Final</text><text fill="#000000" font-family="sans-serif" font-size="4.8" lengthAdjust="spacing" textLength="68" x="31" y="490.5124">Penalty Calculation [Billing.sol]</text><path d="M4,501.5188 L57.2,501.5188 L57.2,504.8564 L53.2,508.8564 L4,508.8564 L4,501.5188 " fill="#EEEEEE" style="stroke:#000000;stroke-width:0.6000000000000001;"/><rect fill="none" height="62.0259" style="stroke:#000000;stroke-width:0.6000000000000001;" width="259.6" x="4" y="501.5188"/><text fill="#000000" font-family="sans-serif" font-size="4.8" font-weight="bold" lengthAdjust="spacing" textLength="35.2" x="10" y="507.05">Funds transfer</text><polygon fill="#181818" points="183.6,522.7317,187.6,524.3317,183.6,525.9317,185.2,524.3317" style="stroke:#181818;stroke-width:0.4000000000000001;"/><line style="stroke:#181818;stroke-width:0.4000000000000001;" x1="23" x2="186" y1="524.3317" y2="524.3317"/><text fill="#000000" font-family="sans-serif" font-size="4.8" lengthAdjust="spacing" textLength="50.4" x="25.8" y="515.5876">Initiate Funds Transfer</text><text fill="#000000" font-family="sans-serif" font-size="4.8" lengthAdjust="spacing" textLength="24.4" x="27" y="522.1253">[Billing.sol]</text><line style="stroke:#181818;stroke-width:0.4000000000000001;" x1="188.4" x2="205.2" y1="543.007" y2="543.007"/><line style="stroke:#181818;stroke-width:0.4000000000000001;" x1="205.2" x2="205.2" y1="543.007" y2="548.207"/><line style="stroke:#181818;stroke-width:0.4000000000000001;" x1="188.8" x2="205.2" y1="548.207" y2="548.207"/><polygon fill="#181818" points="192.8,546.607,188.8,548.207,192.8,549.807,191.2,548.207" style="stroke:#181818;stroke-width:0.4000000000000001;"/><text fill="#000000" font-family="sans-serif" font-size="4.8" lengthAdjust="spacing" textLength="40" x="191.2" y="534.2629">Call requestFunds</text><text fill="#000000" font-family="sans-serif" font-size="4.8" lengthAdjust="spacing" textLength="66.4" x="192.4" y="540.8006">and transferFunds [Billing.sol]</text><polygon fill="#181818" points="27.4,558.7446,23.4,560.3446,27.4,561.9446,25.8,560.3446" style="stroke:#181818;stroke-width:0.4000000000000001;"/><line style="stroke:#181818;stroke-width:0.4000000000000001;" x1="25" x2="188" y1="560.3446" y2="560.3446"/><text fill="#000000" font-family="sans-serif" font-size="4.8" lengthAdjust="spacing" textLength="86" x="29.8" y="558.1382">Confirm Funds Transferred [Billing.sol]</text><!--SRC=[fLJ1Rjim3BtxAuGUTbe7RCSS1ZXEWXNBK2_khTr1bPbKg2nbafoX-_gHifHOJe8Ds2cE-FZ8zqZ9lKgzvvPth8KjxvLV6UqR-HlOnqz5WH4lXTnpxTbDPRJhEx3iIRDoSSEuOrMvo36rDGVPPfXwYbcK-ts8BCgwpaDDX_ye5sjvouLt0TXKEUokNZKXG1-J9b-ur4hgLsAvHme50Nc_AQlriYYqyS3C0Jl4tj_7undRm4uwhEYbqOphbZLW3r80_YeGT5hihEdt6R102dRxEUYOiL88S8vjZMLs3Ah_1KHHGZNLZ5LSgInQBZuueqWGvMKTDDM9Uzb9dqMN1z3-I8tDpiZNhRHTJWAeDwWheiXpyPc8Eoszv1wEk31rz_ywQ9mprdXZJzmBy5mgLr0iCM_0zrO7EFl2tGjHlcEDt6cE0JXt9PALRGjjxaezTYNLH9mCRUKJdblponqxS-TYtH0vsaPoOpF1_TXtUK15_5cDg6AT4HDHf7vMlHQNnzsCAqwrLPUqdMOw6lkrQz6iI_RDuBYDbNeNBaODcYl_nahdS9CxgXUN1h7yT1WL9QRlFTYtU273-B_MTyKGJCBNPaUdpEXRGRUOflhO3TM7HFBpHpI1CfO7hdfQnBa5Bbvm1pOWZ6r3fWsVGsH8pCj5ABKjJBTNackq1pCxy5OATubXPDaLn-PIgMJLW_5SHSCa3ddm2UShUaLTFnZkn_7H4XolME9xZ1zJ2mPVfvscEtRYFj_2INUJ2jE55Adha9QMu59NsTQj90AfcvIHrDCxcsUVlKAuzQrZ-49ejmLxqPq1yX0XOUnNV8gFqSyUd1-odeQ7Fl4FXtyNb5Mqq5vLyGS0]--></g></svg>