<?xml version="1.0" encoding="us-ascii" standalone="no"?><svg xmlns="http://www.w3.org/2000/svg" xmlns:xlink="http://www.w3.org/1999/xlink" contentStyleType="text/css" height="700.8px" preserveAspectRatio="none" style="width:667px;height:700px;background:#FFFFFF;" version="1.1" viewBox="0 0 667 700" width="667.8px" zoomAndPan="magnify"><defs/><g><line style="stroke:#181818;stroke-width:0.3;stroke-dasharray:5.0,5.0;" x1="36" x2="36" y1="23.4408" y2="678.3963"/><line style="stroke:#181818;stroke-width:0.3;stroke-dasharray:5.0,5.0;" x1="101.4" x2="101.4" y1="23.4408" y2="678.3963"/><line style="stroke:#181818;stroke-width:0.3;stroke-dasharray:5.0,5.0;" x1="239.4" x2="239.4" y1="23.4408" y2="678.3963"/><line style="stroke:#181818;stroke-width:0.3;stroke-dasharray:5.0,5.0;" x1="390.3" x2="390.3" y1="23.4408" y2="678.3963"/><line style="stroke:#181818;stroke-width:0.3;stroke-dasharray:5.0,5.0;" x1="570.9" x2="570.9" y1="23.4408" y2="678.3963"/><line style="stroke:#181818;stroke-width:0.3;stroke-dasharray:5.0,5.0;" x1="626.7" x2="626.7" y1="23.4408" y2="678.3963"/><rect fill="#E2E2F0" height="19.8408" rx="1.5" ry="1.5" style="stroke:#181818;stroke-width:0.3;" width="63.6" x="4.2" y="3"/><text fill="#000000" font-family="sans-serif" font-size="8.4" lengthAdjust="spacing" textLength="55.2" x="8.4" y="16.1796">Consumer AD</text><rect fill="#E2E2F0" height="19.8408" rx="1.5" ry="1.5" style="stroke:#181818;stroke-width:0.3;" width="63.6" x="4.2" y="677.7963"/><text fill="#000000" font-family="sans-serif" font-size="8.4" lengthAdjust="spacing" textLength="55.2" x="8.4" y="690.9758">Consumer AD</text><rect fill="#E2E2F0" height="19.8408" rx="1.5" ry="1.5" style="stroke:#181818;stroke-width:0.3;" width="55.8" x="73.8" y="3"/><text fill="#000000" font-family="sans-serif" font-size="8.4" lengthAdjust="spacing" textLength="47.4" x="78" y="16.1796">Provider AD</text><rect fill="#E2E2F0" height="19.8408" rx="1.5" ry="1.5" style="stroke:#181818;stroke-width:0.3;" width="55.8" x="73.8" y="677.7963"/><text fill="#000000" font-family="sans-serif" font-size="8.4" lengthAdjust="spacing" textLength="47.4" x="78" y="690.9758">Provider AD</text><rect fill="#E2E2F0" height="19.8408" rx="1.5" ry="1.5" style="stroke:#181818;stroke-width:0.3;" width="30.6" x="224.4" y="3"/><text fill="#000000" font-family="sans-serif" font-size="8.4" lengthAdjust="spacing" textLength="22.2" x="228.6" y="16.1796">DApp</text><rect fill="#E2E2F0" height="19.8408" rx="1.5" ry="1.5" style="stroke:#181818;stroke-width:0.3;" width="30.6" x="224.4" y="677.7963"/><text fill="#000000" font-family="sans-serif" font-size="8.4" lengthAdjust="spacing" textLength="22.2" x="228.6" y="690.9758">DApp</text><rect fill="#E2E2F0" height="19.8408" rx="1.5" ry="1.5" style="stroke:#181818;stroke-width:0.3;" width="73.2" x="353.7" y="3"/><text fill="#000000" font-family="sans-serif" font-size="8.4" lengthAdjust="spacing" textLength="64.8" x="357.9" y="16.1796">Smart Contracts</text><rect fill="#E2E2F0" height="19.8408" rx="1.5" ry="1.5" style="stroke:#181818;stroke-width:0.3;" width="73.2" x="353.7" y="677.7963"/><text fill="#000000" font-family="sans-serif" font-size="8.4" lengthAdjust="spacing" textLength="64.8" x="357.9" y="690.9758">Smart Contracts</text><rect fill="#E2E2F0" height="19.8408" rx="1.5" ry="1.5" style="stroke:#181818;stroke-width:0.3;" width="25.2" x="558.3" y="3"/><text fill="#000000" font-family="sans-serif" font-size="8.4" lengthAdjust="spacing" textLength="16.8" x="562.5" y="16.1796">IPFS</text><rect fill="#E2E2F0" height="19.8408" rx="1.5" ry="1.5" style="stroke:#181818;stroke-width:0.3;" width="25.2" x="558.3" y="677.7963"/><text fill="#000000" font-family="sans-serif" font-size="8.4" lengthAdjust="spacing" textLength="16.8" x="562.5" y="690.9758">IPFS</text><rect fill="#E2E2F0" height="19.8408" rx="1.5" ry="1.5" style="stroke:#181818;stroke-width:0.3;" width="75" x="589.5" y="3"/><text fill="#000000" font-family="sans-serif" font-size="8.4" lengthAdjust="spacing" textLength="66.6" x="593.7" y="16.1796">Chainlink Oracle</text><rect fill="#E2E2F0" height="19.8408" rx="1.5" ry="1.5" style="stroke:#181818;stroke-width:0.3;" width="75" x="589.5" y="677.7963"/><text fill="#000000" font-family="sans-serif" font-size="8.4" lengthAdjust="spacing" textLength="66.6" x="593.7" y="690.9758">Chainlink Oracle</text><path d="M3,32.4408 L3,48.6408 L660,48.6408 L660,38.4408 L654,32.4408 L3,32.4408 " fill="#FEFFDD" style="stroke:#181818;stroke-width:0.3;"/><path d="M654,32.4408 L654,38.4408 L660,38.4408 L654,32.4408 " fill="#FEFFDD" style="stroke:#181818;stroke-width:0.3;"/><text fill="#000000" font-family="sans-serif" font-size="7.8" lengthAdjust="spacing" textLength="120.6" x="268.65" y="43.779">Registration and Service Selection</text><polygon fill="#181818" points="232.5,63.888,238.5,66.288,232.5,68.688,234.9,66.288" style="stroke:#181818;stroke-width:0.6;"/><line style="stroke:#181818;stroke-width:0.6;" x1="36" x2="236.1" y1="66.288" y2="66.288"/><text fill="#000000" font-family="sans-serif" font-size="7.8" lengthAdjust="spacing" textLength="79.2" x="40.2" y="62.8026">Access for registration</text><polygon fill="#181818" points="232.5,82.9116,238.5,85.3116,232.5,87.7116,234.9,85.3116" style="stroke:#181818;stroke-width:0.6;"/><line style="stroke:#181818;stroke-width:0.6;" x1="101.7" x2="236.1" y1="85.3116" y2="85.3116"/><text fill="#000000" font-family="sans-serif" font-size="7.8" lengthAdjust="spacing" textLength="79.2" x="105.9" y="81.8262">Access for registration</text><polygon fill="#181818" points="383.1,101.9352,389.1,104.3352,383.1,106.7352,385.5,104.3352" style="stroke:#181818;stroke-width:0.6;"/><line style="stroke:#181818;stroke-width:0.6;" x1="239.7" x2="386.7" y1="104.3352" y2="104.3352"/><text fill="#000000" font-family="sans-serif" font-size="7.8" lengthAdjust="spacing" textLength="136.2" x="243.9" y="100.8498">Call registrationAD.sol for Registration</text><polygon fill="#181818" points="246.3,120.9588,240.3,123.3588,246.3,125.7588,243.9,123.3588" style="stroke:#181818;stroke-width:0.6;"/><line style="stroke:#181818;stroke-width:0.6;" x1="242.7" x2="389.7" y1="123.3588" y2="123.3588"/><text fill="#000000" font-family="sans-serif" font-size="7.8" lengthAdjust="spacing" textLength="82.2" x="249.9" y="119.8734">Emit RegistrationEvent</text><polygon fill="#181818" points="42.6,139.9824,36.6,142.3824,42.6,144.7824,40.2,142.3824" style="stroke:#181818;stroke-width:0.6;"/><line style="stroke:#181818;stroke-width:0.6;" x1="39" x2="239.1" y1="142.3824" y2="142.3824"/><text fill="#000000" font-family="sans-serif" font-size="7.8" lengthAdjust="spacing" textLength="74.4" x="46.2" y="138.897">Confirm Registration</text><polygon fill="#181818" points="232.5,159.006,238.5,161.406,232.5,163.806,234.9,161.406" style="stroke:#181818;stroke-width:0.6;"/><line style="stroke:#181818;stroke-width:0.6;" x1="101.7" x2="236.1" y1="161.406" y2="161.406"/><text fill="#000000" font-family="sans-serif" font-size="7.8" lengthAdjust="spacing" textLength="123.6" x="105.9" y="157.9206">Initiate Service Provision (Step P-1)</text><polygon fill="#181818" points="383.1,178.0296,389.1,180.4296,383.1,182.8296,385.5,180.4296" style="stroke:#181818;stroke-width:0.6;"/><line style="stroke:#181818;stroke-width:0.6;" x1="239.7" x2="386.7" y1="180.4296" y2="180.4296"/><text fill="#000000" font-family="sans-serif" font-size="7.8" lengthAdjust="spacing" textLength="136.2" x="243.9" y="176.9442">Call registrationAD.sol for Registration</text><polygon fill="#181818" points="563.7,197.0532,569.7,199.4532,563.7,201.8532,566.1,199.4532" style="stroke:#181818;stroke-width:0.6;"/><line style="stroke:#181818;stroke-width:0.6;" x1="390.3" x2="567.3" y1="199.4532" y2="199.4532"/><text fill="#000000" font-family="sans-serif" font-size="7.8" lengthAdjust="spacing" textLength="72" x="394.5" y="195.9678">Store Service Details</text><polygon fill="#181818" points="396.9,216.0768,390.9,218.4768,396.9,220.8768,394.5,218.4768" style="stroke:#181818;stroke-width:0.6;"/><line style="stroke:#181818;stroke-width:0.6;" x1="393.3" x2="570.3" y1="218.4768" y2="218.4768"/><text fill="#000000" font-family="sans-serif" font-size="7.8" lengthAdjust="spacing" textLength="106.8" x="400.5" y="214.9914">Return IPFS Hash &amp; Signature</text><polygon fill="#181818" points="246.3,235.1005,240.3,237.5005,246.3,239.9005,243.9,237.5005" style="stroke:#181818;stroke-width:0.6;"/><line style="stroke:#181818;stroke-width:0.6;" x1="242.7" x2="389.7" y1="237.5005" y2="237.5005"/><text fill="#000000" font-family="sans-serif" font-size="7.8" lengthAdjust="spacing" textLength="87" x="249.9" y="234.0151">Emit ServiceAddedEvent</text><polygon fill="#181818" points="108.3,254.1241,102.3,256.5241,108.3,258.9241,105.9,256.5241" style="stroke:#181818;stroke-width:0.6;"/><line style="stroke:#181818;stroke-width:0.6;" x1="104.7" x2="239.1" y1="256.5241" y2="256.5241"/><text fill="#000000" font-family="sans-serif" font-size="7.8" lengthAdjust="spacing" textLength="88.2" x="111.9" y="253.0387">Confirm Service Addition</text><polygon fill="#181818" points="232.5,273.1477,238.5,275.5477,232.5,277.9477,234.9,275.5477" style="stroke:#181818;stroke-width:0.6;"/><line style="stroke:#181818;stroke-width:0.6;" x1="36" x2="236.1" y1="275.5477" y2="275.5477"/><text fill="#000000" font-family="sans-serif" font-size="7.8" lengthAdjust="spacing" textLength="93" x="40.2" y="272.0623">Browse Services (Step C-1)</text><polygon fill="#181818" points="383.1,292.1713,389.1,294.5713,383.1,296.9713,385.5,294.5713" style="stroke:#181818;stroke-width:0.6;"/><line style="stroke:#181818;stroke-width:0.6;" x1="239.7" x2="386.7" y1="294.5713" y2="294.5713"/><text fill="#000000" font-family="sans-serif" font-size="7.8" lengthAdjust="spacing" textLength="83.4" x="243.9" y="291.0859">Call serviceSelection.sol</text><polygon fill="#181818" points="42.6,311.1949,36.6,313.5949,42.6,315.9949,40.2,313.5949" style="stroke:#181818;stroke-width:0.6;"/><line style="stroke:#181818;stroke-width:0.6;" x1="39" x2="389.7" y1="313.5949" y2="313.5949"/><text fill="#000000" font-family="sans-serif" font-size="7.8" lengthAdjust="spacing" textLength="88.8" x="46.2" y="310.1095">Return Available Services</text><polygon fill="#181818" points="383.1,330.2185,389.1,332.6185,383.1,335.0185,385.5,332.6185" style="stroke:#181818;stroke-width:0.6;"/><line style="stroke:#181818;stroke-width:0.6;" x1="36" x2="386.7" y1="332.6185" y2="332.6185"/><text fill="#000000" font-family="sans-serif" font-size="7.8" lengthAdjust="spacing" textLength="93.6" x="40.2" y="329.1331">Call selectService Function</text><polygon fill="#181818" points="246.3,349.2421,240.3,351.6421,246.3,354.0421,243.9,351.6421" style="stroke:#181818;stroke-width:0.6;"/><line style="stroke:#181818;stroke-width:0.6;" x1="242.7" x2="389.7" y1="351.6421" y2="351.6421"/><text fill="#000000" font-family="sans-serif" font-size="7.8" lengthAdjust="spacing" textLength="93.6" x="249.9" y="348.1567">Emit ServiceSelectedEvent</text><polygon fill="#181818" points="42.6,368.2657,36.6,370.6657,42.6,373.0657,40.2,370.6657" style="stroke:#181818;stroke-width:0.6;"/><line style="stroke:#181818;stroke-width:0.6;" x1="39" x2="239.1" y1="370.6657" y2="370.6657"/><text fill="#000000" font-family="sans-serif" font-size="7.8" lengthAdjust="spacing" textLength="90" x="46.2" y="367.1803">Confirm Service Selection</text><path d="M3,378.4657 L3,394.6657 L660,394.6657 L660,384.4657 L654,378.4657 L3,378.4657 " fill="#FEFFDD" style="stroke:#181818;stroke-width:0.3;"/><path d="M654,378.4657 L654,384.4657 L660,384.4657 L654,378.4657 " fill="#FEFFDD" style="stroke:#181818;stroke-width:0.3;"/><text fill="#000000" font-family="sans-serif" font-size="7.8" lengthAdjust="spacing" textLength="144.6" x="256.65" y="389.8039">SLA Monitoring and Penalty Assessment</text><polygon fill="#181818" points="619.8,409.9129,625.8,412.3129,619.8,414.7129,622.2,412.3129" style="stroke:#181818;stroke-width:0.6;"/><line style="stroke:#181818;stroke-width:0.6;" x1="36" x2="623.4" y1="412.3129" y2="412.3129"/><text fill="#000000" font-family="sans-serif" font-size="7.8" lengthAdjust="spacing" textLength="72.6" x="40.2" y="408.8275">Query Oracle for KPI</text><polygon fill="#181818" points="396.9,428.9366,390.9,431.3366,396.9,433.7366,394.5,431.3366" style="stroke:#181818;stroke-width:0.6;"/><line style="stroke:#181818;stroke-width:0.6;" x1="393.3" x2="626.4" y1="431.3366" y2="431.3366"/><text fill="#000000" font-family="sans-serif" font-size="7.8" lengthAdjust="spacing" textLength="131.4" x="400.5" y="427.8512">Log KPI on-chain [monitorOracle.sol]</text><line style="stroke:#181818;stroke-width:0.6;" x1="390.3" x2="415.5" y1="450.3602" y2="450.3602"/><line style="stroke:#181818;stroke-width:0.6;" x1="415.5" x2="415.5" y1="450.3602" y2="458.1602"/><line style="stroke:#181818;stroke-width:0.6;" x1="390.9" x2="415.5" y1="458.1602" y2="458.1602"/><polygon fill="#181818" points="396.9,455.7602,390.9,458.1602,396.9,460.5602,394.5,458.1602" style="stroke:#181818;stroke-width:0.6;"/><text fill="#000000" font-family="sans-serif" font-size="7.8" lengthAdjust="spacing" textLength="158.4" x="394.5" y="446.8748">Evaluate Breach &amp; Record [recordBreach.sol]</text><polygon fill="#181818" points="396.9,474.7838,390.9,477.1838,396.9,479.5838,394.5,477.1838" style="stroke:#181818;stroke-width:0.6;"/><line style="stroke:#181818;stroke-width:0.6;" x1="393.3" x2="626.4" y1="477.1838" y2="477.1838"/><text fill="#000000" font-family="sans-serif" font-size="7.8" lengthAdjust="spacing" textLength="177.6" x="400.5" y="473.6984">Record SLA compliance metrics [recordBreach.sol]</text><path d="M3,484.9838 L3,501.1838 L660,501.1838 L660,490.9838 L654,484.9838 L3,484.9838 " fill="#FEFFDD" style="stroke:#181818;stroke-width:0.3;"/><path d="M654,484.9838 L654,490.9838 L660,490.9838 L654,484.9838 " fill="#FEFFDD" style="stroke:#181818;stroke-width:0.3;"/><text fill="#000000" font-family="sans-serif" font-size="7.8" lengthAdjust="spacing" textLength="91.2" x="283.35" y="496.322">Billing and Total Penalties</text><polygon fill="#181818" points="383.1,516.431,389.1,518.831,383.1,521.231,385.5,518.831" style="stroke:#181818;stroke-width:0.6;"/><line style="stroke:#181818;stroke-width:0.6;" x1="36" x2="386.7" y1="518.831" y2="518.831"/><text fill="#000000" font-family="sans-serif" font-size="7.8" lengthAdjust="spacing" textLength="88.8" x="40.2" y="515.3456">Initiate Billing [Billing.sol]</text><line style="stroke:#181818;stroke-width:0.6;" x1="390.3" x2="415.5" y1="537.8546" y2="537.8546"/><line style="stroke:#181818;stroke-width:0.6;" x1="415.5" x2="415.5" y1="537.8546" y2="545.6546"/><line style="stroke:#181818;stroke-width:0.6;" x1="390.9" x2="415.5" y1="545.6546" y2="545.6546"/><polygon fill="#181818" points="396.9,543.2546,390.9,545.6546,396.9,548.0546,394.5,545.6546" style="stroke:#181818;stroke-width:0.6;"/><text fill="#000000" font-family="sans-serif" font-size="7.8" lengthAdjust="spacing" textLength="130.2" x="394.5" y="534.3692">Query recordBreach.sol for Penalties</text><polygon fill="#181818" points="42.6,562.2782,36.6,564.6782,42.6,567.0782,40.2,564.6782" style="stroke:#181818;stroke-width:0.6;"/><line style="stroke:#181818;stroke-width:0.6;" x1="39" x2="389.7" y1="564.6782" y2="564.6782"/><text fill="#000000" font-family="sans-serif" font-size="7.8" lengthAdjust="spacing" textLength="118.8" x="46.2" y="561.1928">Return Total Penalties [Billing.sol]</text><polygon fill="#181818" points="383.1,581.3018,389.1,583.7018,383.1,586.1018,385.5,583.7018" style="stroke:#181818;stroke-width:0.6;"/><line style="stroke:#181818;stroke-width:0.6;" x1="36" x2="386.7" y1="583.7018" y2="583.7018"/><text fill="#000000" font-family="sans-serif" font-size="7.8" lengthAdjust="spacing" textLength="130.8" x="40.2" y="580.2164">Call calculateTotalPenalty [Billing.sol]</text><polygon fill="#181818" points="42.6,600.3254,36.6,602.7254,42.6,605.1254,40.2,602.7254" style="stroke:#181818;stroke-width:0.6;"/><line style="stroke:#181818;stroke-width:0.6;" x1="39" x2="389.7" y1="602.7254" y2="602.7254"/><text fill="#000000" font-family="sans-serif" font-size="7.8" lengthAdjust="spacing" textLength="157.8" x="46.2" y="599.24">Confirm Final Penalty Calculation [Billing.sol]</text><polygon fill="#181818" points="383.1,619.349,389.1,621.749,383.1,624.149,385.5,621.749" style="stroke:#181818;stroke-width:0.6;"/><line style="stroke:#181818;stroke-width:0.6;" x1="36" x2="386.7" y1="621.749" y2="621.749"/><text fill="#000000" font-family="sans-serif" font-size="7.8" lengthAdjust="spacing" textLength="120.6" x="40.2" y="618.2636">Initiate Funds Transfer [Billing.sol]</text><line style="stroke:#181818;stroke-width:0.6;" x1="390.3" x2="415.5" y1="640.7727" y2="640.7727"/><line style="stroke:#181818;stroke-width:0.6;" x1="415.5" x2="415.5" y1="640.7727" y2="648.5727"/><line style="stroke:#181818;stroke-width:0.6;" x1="390.9" x2="415.5" y1="648.5727" y2="648.5727"/><polygon fill="#181818" points="396.9,646.1727,390.9,648.5727,396.9,650.9727,394.5,648.5727" style="stroke:#181818;stroke-width:0.6;"/><text fill="#000000" font-family="sans-serif" font-size="7.8" lengthAdjust="spacing" textLength="172.2" x="394.5" y="637.2873">Call requestFunds and transferFunds [Billing.sol]</text><polygon fill="#181818" points="42.6,665.1963,36.6,667.5963,42.6,669.9963,40.2,667.5963" style="stroke:#181818;stroke-width:0.6;"/><line style="stroke:#181818;stroke-width:0.6;" x1="39" x2="389.7" y1="667.5963" y2="667.5963"/><text fill="#000000" font-family="sans-serif" font-size="7.8" lengthAdjust="spacing" textLength="136.2" x="46.2" y="664.1109">Confirm Funds Transferred [Billing.sol]</text><!--SRC=[fLHDZzCm4BtdLupsW42YI5nxG7AJLbGKRQZtjk9W7BThuTZ1TeBwxx4TvyFPL21nIk9vC- -zcN4QeYsdl27ImaEkf6bhfW4L3q0CvAZ8cZcWrAhZrGGebu02DKs85AWiqn2ktHSu2gi9jIQWS9vYZkK1Xu1_IKFv2-5ISFaJ7bs-O07sU4RvQPzbKba6gdF2dEJtyNWBPtRbnj5PhYGGMG5ckkEKkQTWr9zc3W-RJq7k5X2bp1YuA0rwbfgL_mBoKO_2-HPo8aGIHSK7eqH8celAS3uLtjVS9j5znwGTwpgbMz- -2zTrMYJLTvJSScBPQ3OCpVWMlCMMDL1kFhxx7xL-Dbl0Lkc9es2MS64o7nlAdfbjjGnm-4pC2xm1pA-Ik5FssdYiXAgALQdnScvy87GutfjF9hZJwhSPPPdeE5zrR7hGk0lUSzGLUXtreyuv8p_4L7MWd5No9GPfXrRIzU7YEUFIPhvcSrhKUpkEJmY-AZTpfRcyXYqlcIJ2tW0PupQrzYHHyP3qhMNw5YzI6FENyfZrmS7OILtzAIYveVxgmNFTi_HPlbdVeqCFttT4j7xhTfeHwcTzPbJf2fvrUFR7VLPA577U1rLr8pYHpdZDhERKhANVwyIE2p6qu4bP8c8ZU3gnyNuC-EVuihJKDsd97zer5NwzBmlgHVdbwb0YQ2kSd90sJ6vDKh8V1ov7afkl58huEvwchXft2rePUD94cejhuZt_yRVmgsN6zYc-ipQczIT_5vfmQLOjKlu0]--></g></svg>