<?xml version="1.0" encoding="us-ascii" standalone="no"?><svg xmlns="http://www.w3.org/2000/svg" xmlns:xlink="http://www.w3.org/1999/xlink" contentStyleType="text/css" height="895px" preserveAspectRatio="none" style="width:1020px;height:895px;background:#FFFFFF;" version="1.1" viewBox="0 0 1020 895" width="1020px" zoomAndPan="magnify"><defs/><g><line style="stroke:#181818;stroke-width:0.5;stroke-dasharray:5.0,5.0;" x1="58" x2="58" y1="39.0679" y2="857.7183"/><line style="stroke:#181818;stroke-width:0.5;stroke-dasharray:5.0,5.0;" x1="167" x2="167" y1="39.0679" y2="857.7183"/><line style="stroke:#181818;stroke-width:0.5;stroke-dasharray:5.0,5.0;" x1="363" x2="363" y1="39.0679" y2="857.7183"/><line style="stroke:#181818;stroke-width:0.5;stroke-dasharray:5.0,5.0;" x1="600.5" x2="600.5" y1="39.0679" y2="857.7183"/><line style="stroke:#181818;stroke-width:0.5;stroke-dasharray:5.0,5.0;" x1="868" x2="868" y1="39.0679" y2="857.7183"/><line style="stroke:#181818;stroke-width:0.5;stroke-dasharray:5.0,5.0;" x1="962" x2="962" y1="39.0679" y2="857.7183"/><rect fill="#E2E2F0" height="33.0679" rx="2.5" ry="2.5" style="stroke:#181818;stroke-width:0.5;" width="106" x="5" y="5"/><text fill="#000000" font-family="sans-serif" font-size="14" lengthAdjust="spacing" textLength="92" x="12" y="26.9659">Consumer AD</text><rect fill="#E2E2F0" height="33.0679" rx="2.5" ry="2.5" style="stroke:#181818;stroke-width:0.5;" width="106" x="5" y="856.7183"/><text fill="#000000" font-family="sans-serif" font-size="14" lengthAdjust="spacing" textLength="92" x="12" y="878.6843">Consumer AD</text><rect fill="#E2E2F0" height="33.0679" rx="2.5" ry="2.5" style="stroke:#181818;stroke-width:0.5;" width="93" x="121" y="5"/><text fill="#000000" font-family="sans-serif" font-size="14" lengthAdjust="spacing" textLength="79" x="128" y="26.9659">Provider AD</text><rect fill="#E2E2F0" height="33.0679" rx="2.5" ry="2.5" style="stroke:#181818;stroke-width:0.5;" width="93" x="121" y="856.7183"/><text fill="#000000" font-family="sans-serif" font-size="14" lengthAdjust="spacing" textLength="79" x="128" y="878.6843">Provider AD</text><rect fill="#E2E2F0" height="33.0679" rx="2.5" ry="2.5" style="stroke:#181818;stroke-width:0.5;" width="51" x="338" y="5"/><text fill="#000000" font-family="sans-serif" font-size="14" lengthAdjust="spacing" textLength="37" x="345" y="26.9659">DApp</text><rect fill="#E2E2F0" height="33.0679" rx="2.5" ry="2.5" style="stroke:#181818;stroke-width:0.5;" width="51" x="338" y="856.7183"/><text fill="#000000" font-family="sans-serif" font-size="14" lengthAdjust="spacing" textLength="37" x="345" y="878.6843">DApp</text><rect fill="#E2E2F0" height="33.0679" rx="2.5" ry="2.5" style="stroke:#181818;stroke-width:0.5;" width="122" x="539.5" y="5"/><text fill="#000000" font-family="sans-serif" font-size="14" lengthAdjust="spacing" textLength="108" x="546.5" y="26.9659">Smart Contracts</text><rect fill="#E2E2F0" height="33.0679" rx="2.5" ry="2.5" style="stroke:#181818;stroke-width:0.5;" width="122" x="539.5" y="856.7183"/><text fill="#000000" font-family="sans-serif" font-size="14" lengthAdjust="spacing" textLength="108" x="546.5" y="878.6843">Smart Contracts</text><rect fill="#E2E2F0" height="33.0679" rx="2.5" ry="2.5" style="stroke:#181818;stroke-width:0.5;" width="125" x="806" y="5"/><text fill="#000000" font-family="sans-serif" font-size="14" lengthAdjust="spacing" textLength="111" x="813" y="26.9659">Chainlink Oracle</text><rect fill="#E2E2F0" height="33.0679" rx="2.5" ry="2.5" style="stroke:#181818;stroke-width:0.5;" width="125" x="806" y="856.7183"/><text fill="#000000" font-family="sans-serif" font-size="14" lengthAdjust="spacing" textLength="111" x="813" y="878.6843">Chainlink Oracle</text><rect fill="#E2E2F0" height="33.0679" rx="2.5" ry="2.5" style="stroke:#181818;stroke-width:0.5;" width="42" x="941" y="5"/><text fill="#000000" font-family="sans-serif" font-size="14" lengthAdjust="spacing" textLength="28" x="948" y="26.9659">IPFS</text><rect fill="#E2E2F0" height="33.0679" rx="2.5" ry="2.5" style="stroke:#181818;stroke-width:0.5;" width="42" x="941" y="856.7183"/><text fill="#000000" font-family="sans-serif" font-size="14" lengthAdjust="spacing" textLength="28" x="948" y="878.6843">IPFS</text><polygon fill="#181818" points="351.5,68.7739,361.5,72.7739,351.5,76.7739,355.5,72.7739" style="stroke:#181818;stroke-width:1.0;"/><line style="stroke:#181818;stroke-width:1.0;" x1="58" x2="357.5" y1="72.7739" y2="72.7739"/><text fill="#000000" font-family="sans-serif" font-size="13" lengthAdjust="spacing" textLength="166" x="65" y="66.9649">Initiate Agreement Creation</text><polygon fill="#181818" points="69,100.4799,59,104.4799,69,108.4799,65,104.4799" style="stroke:#181818;stroke-width:1.0;"/><line style="stroke:#181818;stroke-width:1.0;" x1="63" x2="362.5" y1="104.4799" y2="104.4799"/><text fill="#000000" font-family="sans-serif" font-size="13" lengthAdjust="spacing" textLength="183" x="75" y="98.6709">Request Consumer Service List</text><polygon fill="#181818" points="351.5,132.186,361.5,136.186,351.5,140.186,355.5,136.186" style="stroke:#181818;stroke-width:1.0;"/><line style="stroke:#181818;stroke-width:1.0;" x1="58" x2="357.5" y1="136.186" y2="136.186"/><text fill="#000000" font-family="sans-serif" font-size="13" lengthAdjust="spacing" textLength="180" x="65" y="130.377">Provide Consumer Service List</text><polygon fill="#181818" points="351.5,163.892,361.5,167.892,351.5,171.892,355.5,167.892" style="stroke:#181818;stroke-width:1.0;"/><line style="stroke:#181818;stroke-width:1.0;" x1="167.5" x2="357.5" y1="167.892" y2="167.892"/><text fill="#000000" font-family="sans-serif" font-size="13" lengthAdjust="spacing" textLength="146" x="174.5" y="162.083">Initiate Service Provision</text><polygon fill="#181818" points="178.5,195.598,168.5,199.598,178.5,203.598,174.5,199.598" style="stroke:#181818;stroke-width:1.0;"/><line style="stroke:#181818;stroke-width:1.0;" x1="172.5" x2="362.5" y1="199.598" y2="199.598"/><text fill="#000000" font-family="sans-serif" font-size="13" lengthAdjust="spacing" textLength="172" x="184.5" y="193.789">Request Provider Service List</text><polygon fill="#181818" points="351.5,227.304,361.5,231.304,351.5,235.304,355.5,231.304" style="stroke:#181818;stroke-width:1.0;"/><line style="stroke:#181818;stroke-width:1.0;" x1="167.5" x2="357.5" y1="231.304" y2="231.304"/><text fill="#000000" font-family="sans-serif" font-size="13" lengthAdjust="spacing" textLength="169" x="174.5" y="225.495">Provide Provider Service List</text><polygon fill="#181818" points="588.5,259.01,598.5,263.01,588.5,267.01,592.5,263.01" style="stroke:#181818;stroke-width:1.0;"/><line style="stroke:#181818;stroke-width:1.0;" x1="363.5" x2="594.5" y1="263.01" y2="263.01"/><text fill="#000000" font-family="sans-serif" font-size="13" lengthAdjust="spacing" textLength="143" x="370.5" y="257.201">Initialize Smart Contract</text><polygon fill="#181818" points="374.5,290.716,364.5,294.716,374.5,298.716,370.5,294.716" style="stroke:#181818;stroke-width:1.0;"/><line style="stroke:#181818;stroke-width:1.0;" x1="368.5" x2="599.5" y1="294.716" y2="294.716"/><text fill="#000000" font-family="sans-serif" font-size="13" lengthAdjust="spacing" textLength="193" x="380.5" y="288.907">Validate Consumer and Provider</text><polygon fill="#181818" points="588.5,322.4221,598.5,326.4221,588.5,330.4221,592.5,326.4221" style="stroke:#181818;stroke-width:1.0;"/><line style="stroke:#181818;stroke-width:1.0;" x1="363.5" x2="594.5" y1="326.4221" y2="326.4221"/><text fill="#000000" font-family="sans-serif" font-size="13" lengthAdjust="spacing" textLength="111" x="370.5" y="320.6131">Confirm Validation</text><polygon fill="#181818" points="856.5,354.1281,866.5,358.1281,856.5,362.1281,860.5,358.1281" style="stroke:#181818;stroke-width:1.0;"/><line style="stroke:#181818;stroke-width:1.0;" x1="600.5" x2="862.5" y1="358.1281" y2="358.1281"/><text fill="#000000" font-family="sans-serif" font-size="13" lengthAdjust="spacing" textLength="211" x="607.5" y="352.3191">Request Consumer SLA Parameters</text><polygon fill="#181818" points="611.5,385.8341,601.5,389.8341,611.5,393.8341,607.5,389.8341" style="stroke:#181818;stroke-width:1.0;"/><line style="stroke:#181818;stroke-width:1.0;" x1="605.5" x2="867.5" y1="389.8341" y2="389.8341"/><text fill="#000000" font-family="sans-serif" font-size="13" lengthAdjust="spacing" textLength="244" x="617.5" y="384.0251">Respond with Consumer SLA Parameters</text><polygon fill="#181818" points="374.5,417.5401,364.5,421.5401,374.5,425.5401,370.5,421.5401" style="stroke:#181818;stroke-width:1.0;"/><line style="stroke:#181818;stroke-width:1.0;" x1="368.5" x2="599.5" y1="421.5401" y2="421.5401"/><text fill="#000000" font-family="sans-serif" font-size="13" lengthAdjust="spacing" textLength="210" x="380.5" y="415.7311">Confirm Consumer SLA Parameters</text><polygon fill="#181818" points="588.5,449.2461,598.5,453.2461,588.5,457.2461,592.5,453.2461" style="stroke:#181818;stroke-width:1.0;"/><line style="stroke:#181818;stroke-width:1.0;" x1="363.5" x2="594.5" y1="453.2461" y2="453.2461"/><text fill="#000000" font-family="sans-serif" font-size="13" lengthAdjust="spacing" textLength="213" x="370.5" y="447.4371">Approve Consumer SLA Parameters</text><polygon fill="#181818" points="856.5,480.9521,866.5,484.9521,856.5,488.9521,860.5,484.9521" style="stroke:#181818;stroke-width:1.0;"/><line style="stroke:#181818;stroke-width:1.0;" x1="600.5" x2="862.5" y1="484.9521" y2="484.9521"/><text fill="#000000" font-family="sans-serif" font-size="13" lengthAdjust="spacing" textLength="200" x="607.5" y="479.1431">Request Provider SLA Parameters</text><polygon fill="#181818" points="611.5,512.6582,601.5,516.6582,611.5,520.6582,607.5,516.6582" style="stroke:#181818;stroke-width:1.0;"/><line style="stroke:#181818;stroke-width:1.0;" x1="605.5" x2="867.5" y1="516.6582" y2="516.6582"/><text fill="#000000" font-family="sans-serif" font-size="13" lengthAdjust="spacing" textLength="233" x="617.5" y="510.8492">Respond with Provider SLA Parameters</text><polygon fill="#181818" points="374.5,544.3642,364.5,548.3642,374.5,552.3642,370.5,548.3642" style="stroke:#181818;stroke-width:1.0;"/><line style="stroke:#181818;stroke-width:1.0;" x1="368.5" x2="599.5" y1="548.3642" y2="548.3642"/><text fill="#000000" font-family="sans-serif" font-size="13" lengthAdjust="spacing" textLength="199" x="380.5" y="542.5552">Confirm Provider SLA Parameters</text><polygon fill="#181818" points="588.5,576.0702,598.5,580.0702,588.5,584.0702,592.5,580.0702" style="stroke:#181818;stroke-width:1.0;"/><line style="stroke:#181818;stroke-width:1.0;" x1="363.5" x2="594.5" y1="580.0702" y2="580.0702"/><text fill="#000000" font-family="sans-serif" font-size="13" lengthAdjust="spacing" textLength="202" x="370.5" y="574.2612">Approve Provider SLA Parameters</text><polygon fill="#181818" points="856.5,607.7762,866.5,611.7762,856.5,615.7762,860.5,611.7762" style="stroke:#181818;stroke-width:1.0;"/><line style="stroke:#181818;stroke-width:1.0;" x1="600.5" x2="862.5" y1="611.7762" y2="611.7762"/><text fill="#000000" font-family="sans-serif" font-size="13" lengthAdjust="spacing" textLength="230" x="607.5" y="605.9672">Request Off-Chain Data for Monitoring</text><polygon fill="#181818" points="611.5,639.4822,601.5,643.4822,611.5,647.4822,607.5,643.4822" style="stroke:#181818;stroke-width:1.0;"/><line style="stroke:#181818;stroke-width:1.0;" x1="605.5" x2="867.5" y1="643.4822" y2="643.4822"/><text fill="#000000" font-family="sans-serif" font-size="13" lengthAdjust="spacing" textLength="132" x="617.5" y="637.6732">Send Monitoring Data</text><polygon fill="#181818" points="950,671.1882,960,675.1882,950,679.1882,954,675.1882" style="stroke:#181818;stroke-width:1.0;"/><line style="stroke:#181818;stroke-width:1.0;" x1="600.5" x2="956" y1="675.1882" y2="675.1882"/><text fill="#000000" font-family="sans-serif" font-size="13" lengthAdjust="spacing" textLength="135" x="607.5" y="669.3792">Store Monitoring Logs</text><polygon fill="#181818" points="856.5,702.8943,866.5,706.8943,856.5,710.8943,860.5,706.8943" style="stroke:#181818;stroke-width:1.0;"/><line style="stroke:#181818;stroke-width:1.0;" x1="600.5" x2="862.5" y1="706.8943" y2="706.8943"/><text fill="#000000" font-family="sans-serif" font-size="13" lengthAdjust="spacing" textLength="211" x="607.5" y="701.0853">Perform Penalty Assessment Query</text><polygon fill="#181818" points="611.5,734.6003,601.5,738.6003,611.5,742.6003,607.5,738.6003" style="stroke:#181818;stroke-width:1.0;"/><line style="stroke:#181818;stroke-width:1.0;" x1="605.5" x2="867.5" y1="738.6003" y2="738.6003"/><text fill="#000000" font-family="sans-serif" font-size="13" lengthAdjust="spacing" textLength="155" x="617.5" y="732.7913">Return Assessment Result</text><polygon fill="#181818" points="950,766.3063,960,770.3063,950,774.3063,954,770.3063" style="stroke:#181818;stroke-width:1.0;"/><line style="stroke:#181818;stroke-width:1.0;" x1="600.5" x2="956" y1="770.3063" y2="770.3063"/><text fill="#000000" font-family="sans-serif" font-size="13" lengthAdjust="spacing" textLength="175" x="607.5" y="764.4973">Store Encrypted Penalty Data</text><polygon fill="#181818" points="69,798.0123,59,802.0123,69,806.0123,65,802.0123" style="stroke:#181818;stroke-width:1.0;"/><line style="stroke:#181818;stroke-width:1.0;" x1="63" x2="599.5" y1="802.0123" y2="802.0123"/><text fill="#000000" font-family="sans-serif" font-size="13" lengthAdjust="spacing" textLength="250" x="75" y="796.2033">Update Consumer SLA and Penalty Status</text><polygon fill="#181818" points="178.5,838.7183,168.5,842.7183,178.5,846.7183,174.5,842.7183" style="stroke:#181818;stroke-width:1.0;"/><line style="stroke:#181818;stroke-width:1.0;" x1="172.5" x2="599.5" y1="842.7183" y2="842.7183"/><text fill="#000000" font-family="sans-serif" font-size="13" lengthAdjust="spacing" textLength="239" x="184.5" y="836.9093">Update Provider SLA and Penalty Status</text><path d="M605,815.0123 L605,842.0123 L1013,842.0123 L1013,825.0123 L1003,815.0123 L605,815.0123 " fill="#FEFFDD" style="stroke:#181818;stroke-width:0.5;"/><path d="M1003,815.0123 L1003,825.0123 L1013,825.0123 L1003,815.0123 " fill="#FEFFDD" style="stroke:#181818;stroke-width:0.5;"/><text fill="#000000" font-family="sans-serif" font-size="13" lengthAdjust="spacing" textLength="384" x="611" y="833.9093">Consumer SLA breach assessment equation  B_{t,c} = g(S_{k,c}, t)</text><path d="M605,815.0123 L605,842.0123 L1006,842.0123 L1006,825.0123 L996,815.0123 L605,815.0123 " fill="#FEFFDD" style="stroke:#181818;stroke-width:0.5;"/><path d="M996,815.0123 L996,825.0123 L1006,825.0123 L996,815.0123 " fill="#FEFFDD" style="stroke:#181818;stroke-width:0.5;"/><text fill="#000000" font-family="sans-serif" font-size="13" lengthAdjust="spacing" textLength="377" x="611" y="833.9093">Provider SLA breach assessment equation  B_{t,p} = g(S_{k,p}, t)</text><path d="M605,815.0123 L605,842.0123 L904,842.0123 L904,825.0123 L894,815.0123 L605,815.0123 " fill="#FEFFDD" style="stroke:#181818;stroke-width:0.5;"/><path d="M894,815.0123 L894,825.0123 L904,825.0123 L894,815.0123 " fill="#FEFFDD" style="stroke:#181818;stroke-width:0.5;"/><text fill="#000000" font-family="sans-serif" font-size="13" lengthAdjust="spacing" textLength="275" x="611" y="833.9093">Quadratic Penalty equation  PQ = (B_{n} + 1)^2</text><!--SRC=[ZPH1Rvj048Nl_8fHJhQQ7DgZfLQYa4gHN7bjr9wYHbiOurLWeRj3AZVAV- -mDdWt0Iatq7xptfjXXrOQKhbgfIQuIXfjkneDnEaLI0j9d4Qj3mZJFAdY0eZNG1gthJj9Oo72ewpcDs0BCZ8dwwWi2Pda89Mkb7w43KCLEcYpYvFrRGZUYM-PE-mVeeY3miqNPxg2Ewr8IKA8IuDO8_E9GKcgqL5Fz2GNh627VpgqBjEfxGpDayeHrifIg7bkV0QDnAJ_mBXYwziBttuSQg0ffkodqL4sImRtIlrZ_s3YKPPS17yoKVGPnuQaBaRvG929lJBrKDAtSPOwVPYfEQvZ4DB86WcDZKxSeBT3spPizbVHORR4ppe4c6Fzi7pzk0USPMUIN-RwxkHp9LF9vzYfv7FiJFBDVd_ZjWPIIHBsZO7l3L-1nYXTligV8OU_dBgAiso_HWpm0Vh4kYdVE0iqxC9DePOL7I6s5grrQxRjq1pV38qwetsAnzXL54qut-hS75l2OXJt8hgL_T66jxOVahkvPpuZITtm4OHN4OnreYBI3LD6bGTQXVA_-T-H7_XVCpR0etTx0FSB-FhmJDVv2to6Sf4zF3_oypNG4kwNWM9W_mx5rbDi9nMtdImC5-LZ9xw8s7BzWgNq2to0ZyjVd_hw_m00]--></g></svg>