<?xml version="1.0" encoding="us-ascii" standalone="no"?><svg xmlns="http://www.w3.org/2000/svg" xmlns:xlink="http://www.w3.org/1999/xlink" contentStyleType="text/css" height="524.4px" preserveAspectRatio="none" style="width:374px;height:524px;background:#FFFFFF;" version="1.1" viewBox="0 0 374 524" width="374.4px" zoomAndPan="magnify"><defs/><g><!--class DApp--><g id="elem_DApp"><rect codeLine="27" fill="#FFFFFF" height="63.1223" id="DApp" rx="1.5" ry="1.5" style="stroke:#00008B;stroke-width:1.5;" width="157.2" x="115.8" y="4.2"/><ellipse cx="180.75" cy="13.8" fill="#ADD1B2" rx="6.6" ry="6.6" style="stroke:#181818;stroke-width:0.6;"/><path d="M180.4313,17.9531 Q179.3813,17.9531 178.6969,17.5125 Q178.0219,17.0625 177.6844,16.2562 Q177.3563,15.4406 177.3563,14.3625 Q177.3563,13.1437 177.75,12.2719 Q178.1437,11.4 178.9125,10.9313 Q179.6813,10.4625 180.8063,10.4625 Q181.3406,10.4625 181.7438,10.575 Q182.1469,10.6781 182.5594,10.8844 L182.0719,12.0938 Q181.6969,11.9063 181.3688,11.8312 Q181.05,11.7563 180.7594,11.7563 Q180.0563,11.7563 179.6344,12.075 Q179.2125,12.3937 179.0344,12.9656 Q178.8563,13.5375 178.8563,14.2969 Q178.8563,15.5063 179.2875,16.0875 Q179.7188,16.6594 180.675,16.6594 Q181.0313,16.6594 181.4063,16.5656 Q181.7813,16.4719 182.2781,16.2469 L182.2781,17.5781 Q181.8375,17.7656 181.3594,17.8594 Q180.8906,17.9531 180.4313,17.9531 Z " fill="#000000"/><text fill="#000000" font-family="sans-serif" font-size="8.4" lengthAdjust="spacing" textLength="22.2" x="193.05" y="17.0592">DApp</text><line style="stroke:#00008B;stroke-width:1.5;" x1="116.4" x2="272.4" y1="23.4" y2="23.4"/><line style="stroke:#00008B;stroke-width:1.5;" x1="116.4" x2="272.4" y1="28.2" y2="28.2"/><ellipse cx="122.4" cy="37.2204" fill="#84BE84" rx="1.8" ry="1.8" style="stroke:#038048;stroke-width:0.6;"/><text fill="#000000" font-family="sans-serif" font-size="8.4" lengthAdjust="spacing" textLength="82.2" x="127.8" y="39.5796">initiateRegistration()</text><ellipse cx="122.4" cy="48.6611" fill="#84BE84" rx="1.8" ry="1.8" style="stroke:#038048;stroke-width:0.6;"/><text fill="#000000" font-family="sans-serif" font-size="8.4" lengthAdjust="spacing" textLength="49.8" x="127.8" y="51.0203">listServices()</text><ellipse cx="122.4" cy="60.1019" fill="#84BE84" rx="1.8" ry="1.8" style="stroke:#038048;stroke-width:0.6;"/><text fill="#000000" font-family="sans-serif" font-size="8.4" lengthAdjust="spacing" textLength="141.6" x="127.8" y="62.4611">interactWithService(serviceID: uint)</text></g><!--class registrationAD--><g id="elem_registrationAD"><rect codeLine="33" fill="#FFFFFF" height="51.6815" id="registrationAD" rx="1.5" ry="1.5" style="stroke:#006400;stroke-width:1.5;" width="79.8" x="74.7" y="114.6"/><ellipse cx="84.51" cy="124.2" fill="#ADD1B2" rx="6.6" ry="6.6" style="stroke:#181818;stroke-width:0.6;"/><path d="M84.1913,128.3531 Q83.1413,128.3531 82.4569,127.9125 Q81.7819,127.4625 81.4444,126.6563 Q81.1163,125.8406 81.1163,124.7625 Q81.1163,123.5437 81.51,122.6719 Q81.9037,121.8 82.6725,121.3313 Q83.4413,120.8625 84.5663,120.8625 Q85.1006,120.8625 85.5038,120.975 Q85.9069,121.0781 86.3194,121.2844 L85.8319,122.4937 Q85.4569,122.3062 85.1288,122.2312 Q84.81,122.1563 84.5194,122.1563 Q83.8163,122.1563 83.3944,122.475 Q82.9725,122.7937 82.7944,123.3656 Q82.6163,123.9375 82.6163,124.6969 Q82.6163,125.9063 83.0475,126.4875 Q83.4787,127.0594 84.435,127.0594 Q84.7912,127.0594 85.1662,126.9656 Q85.5412,126.8719 86.0381,126.6469 L86.0381,127.9781 Q85.5975,128.1656 85.1194,128.2594 Q84.6506,128.3531 84.1913,128.3531 Z " fill="#000000"/><text fill="#000000" font-family="sans-serif" font-size="8.4" lengthAdjust="spacing" textLength="58.8" x="93.09" y="127.4592">registrationAD</text><line style="stroke:#006400;stroke-width:1.5;" x1="75.3" x2="153.9" y1="133.8" y2="133.8"/><line style="stroke:#006400;stroke-width:1.5;" x1="75.3" x2="153.9" y1="138.6" y2="138.6"/><ellipse cx="81.3" cy="147.6204" fill="#84BE84" rx="1.8" ry="1.8" style="stroke:#038048;stroke-width:0.6;"/><text fill="#000000" font-family="sans-serif" font-size="8.4" lengthAdjust="spacing" textLength="55.2" x="86.7" y="149.9796">registerUser()</text><ellipse cx="81.3" cy="159.0611" fill="#84BE84" rx="1.8" ry="1.8" style="stroke:#038048;stroke-width:0.6;"/><text fill="#000000" font-family="sans-serif" font-size="8.4" lengthAdjust="spacing" textLength="64.2" x="86.7" y="161.4203">publishService()</text></g><!--class ServiceSelection--><g id="elem_ServiceSelection"><rect codeLine="38" fill="#FFFFFF" height="51.6815" id="ServiceSelection" rx="1.5" ry="1.5" style="stroke:#8B0000;stroke-width:1.5;" width="165" x="192.9" y="114.6"/><ellipse cx="240.15" cy="124.2" fill="#ADD1B2" rx="6.6" ry="6.6" style="stroke:#181818;stroke-width:0.6;"/><path d="M239.8312,128.3531 Q238.7813,128.3531 238.0969,127.9125 Q237.4219,127.4625 237.0844,126.6563 Q236.7563,125.8406 236.7563,124.7625 Q236.7563,123.5437 237.15,122.6719 Q237.5438,121.8 238.3125,121.3313 Q239.0812,120.8625 240.2062,120.8625 Q240.7406,120.8625 241.1437,120.975 Q241.5469,121.0781 241.9594,121.2844 L241.4719,122.4937 Q241.0969,122.3062 240.7687,122.2312 Q240.45,122.1563 240.1594,122.1563 Q239.4562,122.1563 239.0344,122.475 Q238.6125,122.7937 238.4344,123.3656 Q238.2563,123.9375 238.2563,124.6969 Q238.2563,125.9063 238.6875,126.4875 Q239.1187,127.0594 240.075,127.0594 Q240.4312,127.0594 240.8062,126.9656 Q241.1812,126.8719 241.6781,126.6469 L241.6781,127.9781 Q241.2375,128.1656 240.7594,128.2594 Q240.2906,128.3531 239.8312,128.3531 Z " fill="#000000"/><text fill="#000000" font-family="sans-serif" font-size="8.4" lengthAdjust="spacing" textLength="65.4" x="252.45" y="127.4592">ServiceSelection</text><line style="stroke:#8B0000;stroke-width:1.5;" x1="193.5" x2="357.3" y1="133.8" y2="133.8"/><line style="stroke:#8B0000;stroke-width:1.5;" x1="193.5" x2="357.3" y1="138.6" y2="138.6"/><ellipse cx="199.5" cy="147.6204" fill="#84BE84" rx="1.8" ry="1.8" style="stroke:#038048;stroke-width:0.6;"/><text fill="#000000" font-family="sans-serif" font-size="8.4" lengthAdjust="spacing" textLength="149.4" x="204.9" y="149.9796">selectServiceFromList(serviceID: uint)</text><ellipse cx="199.5" cy="159.0611" fill="#84BE84" rx="1.8" ry="1.8" style="stroke:#038048;stroke-width:0.6;"/><text fill="#000000" font-family="sans-serif" font-size="8.4" lengthAdjust="spacing" textLength="145.2" x="204.9" y="161.4203">KPIforSelectedService(KPInum: uint)</text></g><!--class ServiceS--><g id="elem_ServiceS"><rect codeLine="43" fill="#FFFFFF" height="51.6815" id="ServiceS" rx="1.5" ry="1.5" style="stroke:#FF8C00;stroke-width:1.5;" width="177" x="186.9" y="213.6"/><ellipse cx="253.35" cy="223.2" fill="#ADD1B2" rx="6.6" ry="6.6" style="stroke:#181818;stroke-width:0.6;"/><path d="M253.0313,227.3531 Q251.9813,227.3531 251.2969,226.9125 Q250.6219,226.4625 250.2844,225.6563 Q249.9562,224.8406 249.9562,223.7625 Q249.9562,222.5438 250.35,221.6719 Q250.7437,220.8 251.5125,220.3312 Q252.2813,219.8625 253.4063,219.8625 Q253.9406,219.8625 254.3438,219.975 Q254.7469,220.0781 255.1594,220.2844 L254.6719,221.4938 Q254.2969,221.3063 253.9688,221.2313 Q253.65,221.1563 253.3594,221.1563 Q252.6563,221.1563 252.2344,221.475 Q251.8125,221.7938 251.6344,222.3656 Q251.4562,222.9375 251.4562,223.6969 Q251.4562,224.9063 251.8875,225.4875 Q252.3188,226.0594 253.275,226.0594 Q253.6313,226.0594 254.0063,225.9656 Q254.3813,225.8719 254.8781,225.6469 L254.8781,226.9781 Q254.4375,227.1656 253.9594,227.2594 Q253.4906,227.3531 253.0313,227.3531 Z " fill="#000000"/><text fill="#000000" font-family="sans-serif" font-size="8.4" lengthAdjust="spacing" textLength="39" x="265.65" y="226.4592">Service#S</text><line style="stroke:#FF8C00;stroke-width:1.5;" x1="187.5" x2="363.3" y1="232.8" y2="232.8"/><line style="stroke:#FF8C00;stroke-width:1.5;" x1="187.5" x2="363.3" y1="237.6" y2="237.6"/><ellipse cx="193.5" cy="246.6204" fill="#84BE84" rx="1.8" ry="1.8" style="stroke:#038048;stroke-width:0.6;"/><text fill="#000000" font-family="sans-serif" font-size="8.4" lengthAdjust="spacing" textLength="91.2" x="198.9" y="248.9796">service_index(address)</text><ellipse cx="193.5" cy="258.0611" fill="#84BE84" rx="1.8" ry="1.8" style="stroke:#038048;stroke-width:0.6;"/><text fill="#000000" font-family="sans-serif" font-size="8.4" lengthAdjust="spacing" textLength="161.4" x="198.9" y="260.4203">agreement(provider, consumer, service)</text></g><!--class recordBreach--><g id="elem_recordBreach"><rect codeLine="48" fill="#FFFFFF" height="63.1223" id="recordBreach" rx="1.5" ry="1.5" style="stroke:#2F4F4F;stroke-width:1.5;" width="176.4" x="187.2" y="312.6"/><ellipse cx="245.55" cy="322.2" fill="#ADD1B2" rx="6.6" ry="6.6" style="stroke:#181818;stroke-width:0.6;"/><path d="M245.2313,326.3531 Q244.1812,326.3531 243.4969,325.9125 Q242.8219,325.4625 242.4844,324.6563 Q242.1563,323.8406 242.1563,322.7625 Q242.1563,321.5438 242.55,320.6719 Q242.9438,319.8 243.7125,319.3313 Q244.4813,318.8625 245.6063,318.8625 Q246.1406,318.8625 246.5438,318.975 Q246.9469,319.0781 247.3594,319.2844 L246.8719,320.4938 Q246.4969,320.3063 246.1688,320.2313 Q245.85,320.1563 245.5594,320.1563 Q244.8563,320.1563 244.4344,320.475 Q244.0125,320.7938 243.8344,321.3656 Q243.6563,321.9375 243.6563,322.6969 Q243.6563,323.9063 244.0875,324.4875 Q244.5187,325.0594 245.475,325.0594 Q245.8312,325.0594 246.2062,324.9656 Q246.5812,324.8719 247.0781,324.6469 L247.0781,325.9781 Q246.6375,326.1656 246.1594,326.2594 Q245.6906,326.3531 245.2313,326.3531 Z " fill="#000000"/><text fill="#000000" font-family="sans-serif" font-size="8.4" lengthAdjust="spacing" textLength="54.6" x="257.85" y="325.4592">recordBreach</text><line style="stroke:#2F4F4F;stroke-width:1.5;" x1="187.8" x2="363" y1="331.8" y2="331.8"/><line style="stroke:#2F4F4F;stroke-width:1.5;" x1="187.8" x2="363" y1="336.6" y2="336.6"/><rect fill="#F24D5C" height="3.6" style="stroke:#C82930;stroke-width:0.6;" width="3.6" x="192" y="343.8204"/><text fill="#000000" font-family="sans-serif" font-size="8.4" lengthAdjust="spacing" textLength="160.8" x="199.2" y="347.9796">breaches: mapping(address =&gt; uint256)</text><ellipse cx="193.8" cy="357.0611" fill="#84BE84" rx="1.8" ry="1.8" style="stroke:#038048;stroke-width:0.6;"/><text fill="#000000" font-family="sans-serif" font-size="8.4" lengthAdjust="spacing" textLength="156" x="199.2" y="359.4203">registerBreach(numBreaches: uint256)</text><ellipse cx="193.8" cy="368.5019" fill="#84BE84" rx="1.8" ry="1.8" style="stroke:#038048;stroke-width:0.6;"/><text fill="#000000" font-family="sans-serif" font-size="8.4" lengthAdjust="spacing" textLength="125.4" x="199.2" y="370.8611">calculatePenalty(user: address)</text></g><!--class monitorOracle--><g id="elem_monitorOracle"><rect codeLine="53" fill="#FFFFFF" height="51.6815" id="monitorOracle" rx="1.5" ry="1.5" style="stroke:#008B8B;stroke-width:1.5;" width="110.4" x="4.2" y="318.3"/><ellipse cx="28.05" cy="327.9" fill="#ADD1B2" rx="6.6" ry="6.6" style="stroke:#181818;stroke-width:0.6;"/><path d="M27.7313,332.0531 Q26.6813,332.0531 25.9969,331.6125 Q25.3219,331.1625 24.9844,330.3563 Q24.6563,329.5406 24.6563,328.4625 Q24.6563,327.2438 25.05,326.3719 Q25.4437,325.5 26.2125,325.0313 Q26.9813,324.5625 28.1063,324.5625 Q28.6406,324.5625 29.0438,324.675 Q29.4469,324.7781 29.8594,324.9844 L29.3719,326.1937 Q28.9969,326.0062 28.6688,325.9313 Q28.35,325.8563 28.0594,325.8563 Q27.3563,325.8563 26.9344,326.175 Q26.5125,326.4938 26.3344,327.0656 Q26.1563,327.6375 26.1563,328.3969 Q26.1563,329.6063 26.5875,330.1875 Q27.0188,330.7594 27.975,330.7594 Q28.3313,330.7594 28.7063,330.6656 Q29.0812,330.5719 29.5781,330.3469 L29.5781,331.6781 Q29.1375,331.8656 28.6594,331.9594 Q28.1906,332.0531 27.7313,332.0531 Z " fill="#000000"/><text fill="#000000" font-family="sans-serif" font-size="8.4" lengthAdjust="spacing" textLength="58.2" x="39.75" y="331.1592">monitorOracle</text><line style="stroke:#008B8B;stroke-width:1.5;" x1="4.8" x2="114" y1="337.5" y2="337.5"/><rect fill="none" height="3.6" style="stroke:#C82930;stroke-width:0.6;" width="3.6" x="9" y="344.7204"/><text fill="#000000" font-family="sans-serif" font-size="8.4" lengthAdjust="spacing" textLength="94.8" x="16.2" y="348.8796">apiSubscription: Object</text><line style="stroke:#008B8B;stroke-width:1.5;" x1="4.8" x2="114" y1="353.7408" y2="353.7408"/><ellipse cx="10.8" cy="362.7611" fill="#84BE84" rx="1.8" ry="1.8" style="stroke:#038048;stroke-width:0.6;"/><text fill="#000000" font-family="sans-serif" font-size="8.4" lengthAdjust="spacing" textLength="67.8" x="16.2" y="365.1203">readKPI(): Object</text></g><!--class ProviderAD_API--><g id="elem_ProviderAD_API"><rect codeLine="58" fill="#FFFFFF" height="40.2408" id="ProviderAD_API" rx="1.5" ry="1.5" style="stroke:#9400D3;stroke-width:1.5;" width="78" x="20.4" y="219.3"/><ellipse cx="29.4" cy="228.9" fill="#B4A7E5" rx="6.6" ry="6.6" style="stroke:#181818;stroke-width:0.6;"/><path d="M27.0188,232.8 L27.0188,231.7781 L28.4344,231.6187 L28.4344,226.6969 L27.0188,226.5375 L27.0188,225.5156 L31.3031,225.5156 L31.3031,226.5375 L29.85,226.6969 L29.85,231.6187 L31.3031,231.7781 L31.3031,232.8 L27.0188,232.8 Z " fill="#000000"/><text fill="#000000" font-family="sans-serif" font-size="8.4" font-style="italic" lengthAdjust="spacing" textLength="58.8" x="37.8" y="232.1592">ProviderAD_API</text><line style="stroke:#9400D3;stroke-width:1.5;" x1="21" x2="97.8" y1="238.5" y2="238.5"/><line style="stroke:#9400D3;stroke-width:1.5;" x1="21" x2="97.8" y1="243.3" y2="243.3"/><ellipse cx="27" cy="252.3204" fill="#84BE84" rx="1.8" ry="1.8" style="stroke:#038048;stroke-width:0.6;"/><text fill="#000000" font-family="sans-serif" font-size="8.4" lengthAdjust="spacing" textLength="62.4" x="32.4" y="254.6796">getKPI(): Object</text></g><!--class Billing--><g id="elem_Billing"><rect codeLine="62" fill="#FFFFFF" height="97.4445" id="Billing" rx="1.5" ry="1.5" style="stroke:#FF69B4;stroke-width:1.5;" width="189.6" x="180.6" y="423"/><ellipse cx="259.95" cy="432.6" fill="#ADD1B2" rx="6.6" ry="6.6" style="stroke:#181818;stroke-width:0.6;"/><path d="M259.6312,436.7531 Q258.5813,436.7531 257.8969,436.3125 Q257.2219,435.8625 256.8844,435.0563 Q256.5563,434.2406 256.5563,433.1625 Q256.5563,431.9437 256.95,431.0719 Q257.3438,430.2 258.1125,429.7313 Q258.8812,429.2625 260.0062,429.2625 Q260.5406,429.2625 260.9437,429.375 Q261.3469,429.4781 261.7594,429.6844 L261.2719,430.8938 Q260.8969,430.7063 260.5687,430.6312 Q260.25,430.5563 259.9594,430.5563 Q259.2562,430.5563 258.8344,430.875 Q258.4125,431.1937 258.2344,431.7656 Q258.0563,432.3375 258.0563,433.0969 Q258.0563,434.3063 258.4875,434.8875 Q258.9188,435.4594 259.875,435.4594 Q260.2313,435.4594 260.6063,435.3656 Q260.9813,435.2719 261.4781,435.0469 L261.4781,436.3781 Q261.0375,436.5656 260.5594,436.6594 Q260.0906,436.7531 259.6312,436.7531 Z " fill="#000000"/><text fill="#000000" font-family="sans-serif" font-size="8.4" lengthAdjust="spacing" textLength="25.8" x="272.25" y="435.8592">Billing</text><line style="stroke:#FF69B4;stroke-width:1.5;" x1="181.2" x2="369.6" y1="442.2" y2="442.2"/><rect fill="none" height="3.6" style="stroke:#C82930;stroke-width:0.6;" width="3.6" x="185.4" y="449.4204"/><text fill="#000000" font-family="sans-serif" font-size="8.4" lengthAdjust="spacing" textLength="62.4" x="192.6" y="453.5796">owner: address</text><rect fill="none" height="3.6" style="stroke:#C82930;stroke-width:0.6;" width="3.6" x="185.4" y="460.8611"/><text fill="#000000" font-family="sans-serif" font-size="8.4" lengthAdjust="spacing" textLength="98.4" x="192.6" y="465.0203">penaltyContract: Penalty</text><rect fill="none" height="3.6" style="stroke:#C82930;stroke-width:0.6;" width="3.6" x="185.4" y="472.3019"/><text fill="#000000" font-family="sans-serif" font-size="8.4" lengthAdjust="spacing" textLength="77.4" x="192.6" y="476.4611">balances: mapping</text><line style="stroke:#FF69B4;stroke-width:1.5;" x1="181.2" x2="369.6" y1="481.3223" y2="481.3223"/><ellipse cx="187.2" cy="490.3426" fill="#84BE84" rx="1.8" ry="1.8" style="stroke:#038048;stroke-width:0.6;"/><text fill="#000000" font-family="sans-serif" font-size="8.4" lengthAdjust="spacing" textLength="91.2" x="192.6" y="492.7018">CalculateTotalPenalty()</text><ellipse cx="187.2" cy="501.7834" fill="#84BE84" rx="1.8" ry="1.8" style="stroke:#038048;stroke-width:0.6;"/><text fill="#000000" font-family="sans-serif" font-size="8.4" lengthAdjust="spacing" textLength="136.8" x="192.6" y="504.1426">requestFunds(consumer, amount)</text><ellipse cx="187.2" cy="513.2241" fill="#84BE84" rx="1.8" ry="1.8" style="stroke:#038048;stroke-width:0.6;"/><text fill="#000000" font-family="sans-serif" font-size="8.4" lengthAdjust="spacing" textLength="174" x="192.6" y="515.5833">transferFunds(provider, consumer, service)</text></g><!--link DApp to registrationAD--><g id="link_DApp_registrationAD"><path codeLine="72" d="M170.46,67.356 C159.522,81.534 146.676,98.202 136.056,111.966 " fill="none" id="DApp-to-registrationAD" style="stroke:#00008B;stroke-width:0.6;"/><polygon fill="#00008B" points="134.1,114.504,139.3006,111.698,135.9341,112.13,135.5021,108.7634,134.1,114.504" style="stroke:#00008B;stroke-width:0.6;"/><text fill="#000000" font-family="sans-serif" font-size="7.8" lengthAdjust="spacing" textLength="28.2" x="154.8" y="94.1382">initiates</text></g><!--link DApp to ServiceSelection--><g id="link_DApp_ServiceSelection"><path codeLine="73" d="M218.7,67.356 C229.848,81.594 242.952,98.34 253.752,112.14 " fill="none" id="DApp-to-ServiceSelection" style="stroke:#00008B;stroke-width:0.6;"/><polygon fill="#00008B" points="255.606,114.504,254.1708,108.7716,253.7582,112.1406,250.3893,111.7281,255.606,114.504" style="stroke:#00008B;stroke-width:0.6;"/><text fill="#000000" font-family="sans-serif" font-size="7.8" lengthAdjust="spacing" textLength="16.2" x="240" y="94.1382">uses</text></g><!--link registrationAD to ServiceSelection--><g id="link_registrationAD_ServiceSelection"><path codeLine="76" d="M154.554,140.4 C165.36,140.4 177.48,140.4 189.768,140.4 " fill="none" id="registrationAD-to-ServiceSelection" style="stroke:#006400;stroke-width:0.6;"/><polygon fill="#006400" points="192.894,140.4,187.494,138,189.894,140.4,187.494,142.8,192.894,140.4" style="stroke:#006400;stroke-width:0.6;"/><text fill="#000000" font-family="sans-serif" font-size="7.8" lengthAdjust="spacing" textLength="16.2" x="165.6" y="136.1382">uses</text></g><!--link ServiceSelection to ServiceS--><g id="link_ServiceSelection_ServiceS"><path codeLine="79" d="M275.4,166.44 C275.4,179.91 275.4,196.494 275.4,210.384 " fill="none" id="ServiceSelection-to-ServiceS" style="stroke:#8B0000;stroke-width:0.6;"/><polygon fill="#8B0000" points="275.4,213.486,277.8,208.086,275.4,210.486,273,208.086,275.4,213.486" style="stroke:#8B0000;stroke-width:0.6;"/><text fill="#000000" font-family="sans-serif" font-size="7.8" lengthAdjust="spacing" textLength="42" x="276" y="193.1382">instantiates</text></g><!--link ServiceS to recordBreach--><g id="link_ServiceS_recordBreach"><path codeLine="82" d="M275.4,265.32 C275.4,278.616 275.4,295.098 275.4,309.492 " fill="none" id="ServiceS-to-recordBreach" style="stroke:#FF8C00;stroke-width:0.6;"/><polygon fill="#FF8C00" points="275.4,312.528,277.8,307.128,275.4,309.528,273,307.128,275.4,312.528" style="stroke:#FF8C00;stroke-width:0.6;"/><text fill="#000000" font-family="sans-serif" font-size="7.8" lengthAdjust="spacing" textLength="16.2" x="276" y="292.1382">uses</text></g><!--reverse link monitorOracle to recordBreach--><g id="link_monitorOracle_recordBreach"><path codeLine="85" d="M117.864,344.1 C139.164,344.1 163.752,344.1 187.068,344.1 " fill="none" id="monitorOracle-backto-recordBreach" style="stroke:#2F4F4F;stroke-width:0.6;"/><polygon fill="#2F4F4F" points="114.744,344.1,120.144,346.5,117.744,344.1,120.144,341.7,114.744,344.1" style="stroke:#2F4F4F;stroke-width:0.6;"/><text fill="#000000" font-family="sans-serif" font-size="7.8" lengthAdjust="spacing" textLength="50.4" x="125.7" y="339.8382">monitors KPIs</text></g><!--reverse link ProviderAD_API to monitorOracle--><g id="link_ProviderAD_API_monitorOracle"><path codeLine="88" d="M59.4,262.908 C59.4,279.27 59.4,301.284 59.4,318.168 " fill="none" id="ProviderAD_API-backto-monitorOracle" style="stroke:#008B8B;stroke-width:0.6;"/><polygon fill="#008B8B" points="59.4,259.71,57,265.11,59.4,262.71,61.8,265.11,59.4,259.71" style="stroke:#008B8B;stroke-width:0.6;"/><text fill="#000000" font-family="sans-serif" font-size="7.8" lengthAdjust="spacing" textLength="39" x="60" y="292.1382">subscribed</text></g><!--reverse link recordBreach to Billing--><g id="link_recordBreach_Billing"><path codeLine="91" d="M275.4,378.792 C275.4,392.328 275.4,408.144 275.4,422.814 " fill="none" id="recordBreach-backto-Billing" style="stroke:#FF69B4;stroke-width:0.6;"/><polygon fill="#FF69B4" points="275.4,375.756,273,381.156,275.4,378.756,277.8,381.156,275.4,375.756" style="stroke:#FF69B4;stroke-width:0.6;"/><text fill="#000000" font-family="sans-serif" font-size="7.8" lengthAdjust="spacing" textLength="39.6" x="276" y="402.5382">dependent</text></g><!--SRC=[ZLLRRzCm57xthp3Rmr91GKmQ3rMfrCis9YPMhOCz83IvoMbhcjZ1TWOLsd_d-98sQRAEfzRdzftp-JlEYYT0jG45qcno8EHL0WikWDwUZ- -6NowlpscSCgq9wMkpIM50Tew_XD8HYzTB9GkHZ6Kg5RrVSGDelv32UCienH0RALK2wcx5uxK0hUafsguHgM9vUqR84waRqMODCmjEtvF-kz06qMikSgPOvXlqvHralpyPvlbWG2TChKTf0GTZ5IovDeePBiLm4h8k5O0uc3O3zSXZc44AiKqDYRUG_5TQ2BzHJ2nVwY_6uqW1YrUOvT9cAJDmgTZcO6Oc1JTI8KQCZ7d0yOOTdckgv2DgGWqd3yFfLSZwncKAvc3UYASf5qjC-2JDb8ir8Iw8shkWsokncddDiI-E4znMg8ywrfFYEL2alOKB52UBpJqtg-29jF-zclHeWVuEYYQ0rI-JjjokQy1RGNt5IXucB-Q8lKMebDo_QDfwzwwiTeRWlL0okqQKPhSO-NbwjP3A5u2aH4MhABB6K4V1VpmxecpN4AsfAJJWpWzS9F0dOacYS8KS85kYeZCG9ih31R-XiHIwoEo_a5SZSgSwsX2X1UlEtGbqZsOip_7kIq3wSU16E3txqAcoxTCZ776qJQt6nIoD2wliAGYMcarKO5yzkXtZAVHMqpLjwjnrnt8-A-OwLZotLzIZD_EVIBRlXoL8TTJP6d5ifxC5Yu4UrLVWYBOiHR-lVV4v92NvIp2DghxXi1kqkYMkIVbRL2QqbjoFFiRdqwg-HmCNZd2MCX5N2BUeuvAqEsbOMZ8NUFzLW3ON-3ZhQ7VPBCFdsiiGCOHUWF8XBodZnAqo4mdbHjC4iDS4HCn14-Vf9ZZFz-ForVtH7UplOu-Mg_zyIcFVK2GQuyd9Nh7MHlPYkeelLyO3k3VzC4B3quhHYAfCWUz_5S9Dh0qJOMXoKblcGzMhLVrdmXDQsSiACnNhCxnK8hefB08fso-9BLvVh5vvrXHrRM7g_bQSUaYto3sC_UnOXFeY8SHkZR1-kIUjbKkdgnc-CIsCb3c6_0C0]--></g></svg>